<svg xmlns="http://www.w3.org/2000/svg" xmlns:svg="http://www.w3.org/2000/svg" id="svg4543" width="744.094" height="1052.362" version="1.1"><metadata id="metadata4548"/><g id="layer2" display="inline"><g id="g10529" stroke="#2d2d2d" stroke-dasharray="none" stroke-miterlimit="4" stroke-width="3.611" opacity=".3" transform="matrix(1.0385329,0,0,1.0385329,-715.2499,-905.91818)"><g id="g10531" stroke="#2d2d2d" stroke-dasharray="none" stroke-miterlimit="4" stroke-width="3.611"><path id="path10533" fill="none" stroke="#2d2d2d" stroke-dasharray="none" stroke-miterlimit="4" stroke-width="3.611" d="m 100,0 0,2000"/><path id="path10535" fill="none" stroke="#2d2d2d" stroke-dasharray="none" stroke-miterlimit="4" stroke-width="3.611" d="m 200,0 0,2000"/><path id="path10537" fill="none" stroke="#2d2d2d" stroke-dasharray="none" stroke-miterlimit="4" stroke-width="3.611" d="m 300,0 0,2000"/><path id="path10539" fill="none" stroke="#2d2d2d" stroke-dasharray="none" stroke-miterlimit="4" stroke-width="3.611" d="m 400,0 0,2000"/><path id="path10541" fill="none" stroke="#2d2d2d" stroke-dasharray="none" stroke-miterlimit="4" stroke-width="3.611" d="m 500,0 0,2000"/><path id="path10543" fill="none" stroke="#2d2d2d" stroke-dasharray="none" stroke-miterlimit="4" stroke-width="3.611" d="m 600,0 0,2000"/><path id="path10545" fill="none" stroke="#2d2d2d" stroke-dasharray="none" stroke-miterlimit="4" stroke-width="3.611" d="m 700,0 0,2000"/><path id="path10547" fill="none" stroke="#2d2d2d" stroke-dasharray="none" stroke-miterlimit="4" stroke-width="3.611" d="m 800,0 0,2000"/><path id="path10549" fill="none" stroke="#2d2d2d" stroke-dasharray="none" stroke-miterlimit="4" stroke-width="3.611" d="m 900,0 0,2000"/><path id="path10551" fill="none" stroke="#2d2d2d" stroke-dasharray="none" stroke-miterlimit="4" stroke-width="3.611" d="m 1000,0 0,2000"/><path id="path10553" fill="none" stroke="#2d2d2d" stroke-dasharray="none" stroke-miterlimit="4" stroke-width="3.611" d="m 1100,0 0,2000"/><path id="path10555" fill="none" stroke="#2d2d2d" stroke-dasharray="none" stroke-miterlimit="4" stroke-width="3.611" d="m 1200,0 0,2000"/><path id="path10557" fill="none" stroke="#2d2d2d" stroke-dasharray="none" stroke-miterlimit="4" stroke-width="3.611" d="m 1300,0 0,2000"/><path id="path10559" fill="none" stroke="#2d2d2d" stroke-dasharray="none" stroke-miterlimit="4" stroke-width="3.611" d="m 1400,0 0,2000"/><path id="path10561" fill="none" stroke="#2d2d2d" stroke-dasharray="none" stroke-miterlimit="4" stroke-width="3.611" d="m 1500,0 0,2000"/><path id="path10563" fill="none" stroke="#2d2d2d" stroke-dasharray="none" stroke-miterlimit="4" stroke-width="3.611" d="m 1600,0 0,2000"/><path id="path10565" fill="none" stroke="#2d2d2d" stroke-dasharray="none" stroke-miterlimit="4" stroke-width="3.611" d="m 1700,0 0,2000"/><path id="path10567" fill="none" stroke="#2d2d2d" stroke-dasharray="none" stroke-miterlimit="4" stroke-width="3.611" d="m 1800,0 0,2000"/><path id="path10569" fill="none" stroke="#2d2d2d" stroke-dasharray="none" stroke-miterlimit="4" stroke-width="3.611" d="m 1900,0 0,2000"/></g><g id="g10571" stroke="#2d2d2d" stroke-dasharray="none" stroke-miterlimit="4" stroke-width="3.611"><path id="path10573" fill="none" stroke="#2d2d2d" stroke-dasharray="none" stroke-miterlimit="4" stroke-width="3.611" d="m 0,100 2000,0"/><path id="path10575" fill="none" stroke="#2d2d2d" stroke-dasharray="none" stroke-miterlimit="4" stroke-width="3.611" d="m 0,200 2000,0"/><path id="path10577" fill="none" stroke="#2d2d2d" stroke-dasharray="none" stroke-miterlimit="4" stroke-width="3.611" d="m 0,300 2000,0"/><path id="path10579" fill="none" stroke="#2d2d2d" stroke-dasharray="none" stroke-miterlimit="4" stroke-width="3.611" d="m 0,400 2000,0"/><path id="path10581" fill="none" stroke="#2d2d2d" stroke-dasharray="none" stroke-miterlimit="4" stroke-width="3.611" d="m 0,500 2000,0"/><path id="path10583" fill="none" stroke="#2d2d2d" stroke-dasharray="none" stroke-miterlimit="4" stroke-width="3.611" d="m 0,600 2000,0"/><path id="path10585" fill="none" stroke="#2d2d2d" stroke-dasharray="none" stroke-miterlimit="4" stroke-width="3.611" d="m 0,700 2000,0"/><path id="path10587" fill="none" stroke="#2d2d2d" stroke-dasharray="none" stroke-miterlimit="4" stroke-width="3.611" d="m 0,800 2000,0"/><path id="path10589" fill="none" stroke="#2d2d2d" stroke-dasharray="none" stroke-miterlimit="4" stroke-width="3.611" d="m 0,900 2000,0"/><path id="path10591" fill="none" stroke="#2d2d2d" stroke-dasharray="none" stroke-miterlimit="4" stroke-width="3.611" d="m 0,1000 2000,0"/><path id="path10593" fill="none" stroke="#2d2d2d" stroke-dasharray="none" stroke-miterlimit="4" stroke-width="3.611" d="m 0,1100 2000,0"/><path id="path10595" fill="none" stroke="#2d2d2d" stroke-dasharray="none" stroke-miterlimit="4" stroke-width="3.611" d="m 0,1200 2000,0"/><path id="path10597" fill="none" stroke="#2d2d2d" stroke-dasharray="none" stroke-miterlimit="4" stroke-width="3.611" d="m 0,1300 2000,0"/><path id="path10599" fill="none" stroke="#2d2d2d" stroke-dasharray="none" stroke-miterlimit="4" stroke-width="3.611" d="m 0,1400 2000,0"/><path id="path10601" fill="none" stroke="#2d2d2d" stroke-dasharray="none" stroke-miterlimit="4" stroke-width="3.611" d="m 0,1500 2000,0"/><path id="path10603" fill="none" stroke="#2d2d2d" stroke-dasharray="none" stroke-miterlimit="4" stroke-width="3.611" d="m 0,1600 2000,0"/><path id="path10605" fill="none" stroke="#2d2d2d" stroke-dasharray="none" stroke-miterlimit="4" stroke-width="3.611" d="m 0,1700 2000,0"/><path id="path10607" fill="none" stroke="#2d2d2d" stroke-dasharray="none" stroke-miterlimit="4" stroke-width="3.611" d="m 0,1800 2000,0"/><path id="path10609" fill="none" stroke="#2d2d2d" stroke-dasharray="none" stroke-miterlimit="4" stroke-width="3.611" d="m 0,1900 2000,0"/></g><rect id="rect10611" width="2000" height="2000" x="0" y="0" fill="none" stroke="#2d2d2d" stroke-dasharray="none" stroke-miterlimit="4" stroke-width="3.611"/></g></g><g id="layer1" display="inline"><path id="path4570" fill="none" stroke="#2d2d2d" stroke-dasharray="none" stroke-linecap="butt" stroke-linejoin="miter" stroke-miterlimit="4" stroke-opacity="1" stroke-width="12.5" d="m -717.14286,1064.8593 c -693.25364,0 2774.13496,0 2080.88136,0"/><path id="path4570-3" fill="none" stroke="#2d2d2d" stroke-dasharray="none" stroke-linecap="butt" stroke-linejoin="miter" stroke-miterlimit="4" stroke-opacity="1" stroke-width="12.5" d="m -611.69946,1172.7877 c 0,694.2428 0,-2774.8107 0,-2080.56799"/><flowRoot font-variant="normal" style="text-align:start;line-height:125%;-inkscape-font-specification:Sans Italic" id="flowRoot3037" fill="#000" fill-opacity="1" stroke="none" font-family="CMU Serif" font-size="16" font-stretch="normal" font-style="italic" font-weight="500" letter-spacing="0" text-anchor="start" transform="matrix(1.6037978,0,0,1.6037978,-1160.398,706.68624)" word-spacing="0" writing-mode="lr-tb" xml:space="preserve"><flowRegion id="flowRegion3039"><rect id="rect3041" width="212.701" height="231.741" x="322.839" y="-1100.469"/></flowRegion><flowPara id="flowPara3043" font-size="72">y</flowPara></flowRoot><flowRoot font-variant="normal" style="text-align:start;line-height:125%;-inkscape-font-specification:Sans Italic" id="flowRoot3037-6" fill="#000" fill-opacity="1" stroke="none" font-family="CMU Serif" font-size="16" font-stretch="normal" font-style="italic" font-weight="500" letter-spacing="0" text-anchor="start" transform="matrix(1.4934289,0,0,1.4934289,910.87161,2636.077)" word-spacing="0" writing-mode="lr-tb" xml:space="preserve"><flowRegion id="flowRegion3039-6"><rect id="rect3041-3" width="212.701" height="231.741" x="322.839" y="-1100.469"/></flowRegion><flowPara id="flowPara3043-7" font-size="72">x</flowPara></flowRoot></g></svg>