<svg xmlns="http://www.w3.org/2000/svg" xmlns:ns0="http://www.iki.fi/pav/software/textext/" xmlns:svg="http://www.w3.org/2000/svg" xmlns:xlink="http://www.w3.org/1999/xlink" id="svg3104" width="744.094" height="1052.362" version="1.1"><metadata id="metadata3109"/><g id="layer1"><rect id="rect3112" width="430.343" height="314.756" x="244.926" y="289.738" fill="none" stroke="#000" stroke-dasharray="none" stroke-dashoffset="0" stroke-linecap="round" stroke-miterlimit="4" stroke-opacity="1" stroke-width=".895" rx="0" ry="47"/><path id="path3882" fill="#c633cd" fill-opacity=".281" stroke="#000" stroke-dasharray="none" stroke-dashoffset="0" stroke-linecap="round" stroke-miterlimit="4" stroke-opacity="1" stroke-width="1" d="m 577.51477,462.02145 a 121.67328,121.67328 0 1 1 -243.34656,0 121.67328,121.67328 0 1 1 243.34656,0 z" transform="translate(4.256424,-14.905838)"/><g id="g3998" stroke-width="0" transform="matrix(5,0,0,5,409.21296,410.34749)" ns0:page_width="816" ns0:text="A, B"><defs id="defs4000"><g id="g4002"><symbol id="textext-41e4c300-0" overflow="visible"><path id="path4005" stroke="none"/></symbol><symbol id="textext-41e4c300-1" overflow="visible"><path id="path4008" stroke="none" d="m 3.96875,-6.9375 c -0.046875,-0.125 -0.078125,-0.203125 -0.234375,-0.203125 -0.15625,0 -0.1875,0.0625 -0.234375,0.203125 L 1.4375,-0.984375 C 1.25,-0.46875 0.859375,-0.3125 0.3125,-0.3125 l 0,0.3125 c 0.234375,-0.015625 0.671875,-0.03125 1.015625,-0.03125 0.3125,0 0.828125,0.015625 1.15625,0.03125 l 0,-0.3125 c -0.5,0 -0.75,-0.25 -0.75,-0.5 0,-0.03125 0.015625,-0.140625 0.015625,-0.15625 l 0.46875,-1.296875 2.453125,0 0.53125,1.515625 c 0.015625,0.046875 0.03125,0.109375 0.03125,0.140625 0,0.296875 -0.5625,0.296875 -0.828125,0.296875 l 0,0.3125 c 0.359375,-0.03125 1.0625,-0.03125 1.4375,-0.03125 0.421875,0 0.890625,0.015625 1.296875,0.03125 l 0,-0.3125 -0.171875,0 C 6.375,-0.3125 6.234375,-0.375 6.125,-0.703125 z m -0.53125,1.109375 1.125,3.25 -2.234375,0 z"/></symbol><symbol id="textext-41e4c300-2" overflow="visible"><path id="path4011" stroke="none" d="m 2.03125,-0.015625 c 0,-0.625 -0.25,-1.046875 -0.640625,-1.046875 -0.359375,0 -0.53125,0.28125 -0.53125,0.53125 0,0.265625 0.171875,0.53125 0.53125,0.53125 0.15625,0 0.28125,-0.0625 0.375,-0.140625 L 1.78125,-0.15625 c 0.015625,0 0.015625,0 0.015625,0.140625 0,0.640625 -0.265625,1.25 -0.703125,1.71875 -0.0625,0.0625 -0.078125,0.078125 -0.078125,0.109375 0,0.078125 0.046875,0.109375 0.09375,0.109375 0.125,0 0.921875,-0.78125 0.921875,-1.9375 z"/></symbol><symbol id="textext-41e4c300-3" overflow="visible"><path id="path4014" stroke="none" d="m 2.21875,-3.65625 0,-2.4375 C 2.21875,-6.4375 2.234375,-6.5 2.703125,-6.5 l 1.234375,0 c 0.96875,0 1.3125,0.84375 1.3125,1.375 0,0.640625 -0.484375,1.46875 -1.59375,1.46875 z M 4.5625,-3.5625 C 5.53125,-3.75 6.21875,-4.390625 6.21875,-5.125 6.21875,-5.984375 5.296875,-6.8125 4,-6.8125 l -3.640625,0 0,0.3125 0.234375,0 c 0.765625,0 0.796875,0.109375 0.796875,0.46875 l 0,5.25 c 0,0.359375 -0.03125,0.46875 -0.796875,0.46875 l -0.234375,0 0,0.3125 3.90625,0 c 1.328125,0 2.21875,-0.890625 2.21875,-1.828125 0,-0.859375 -0.8125,-1.609375 -1.921875,-1.734375 z m -0.609375,3.25 -1.25,0 c -0.46875,0 -0.484375,-0.0625 -0.484375,-0.390625 l 0,-2.71875 1.875,0 C 5.078125,-3.421875 5.5,-2.5 5.5,-1.828125 5.5,-1.125 4.96875,-0.3125 3.953125,-0.3125 z"/></symbol></g></defs><g id="textext-41e4c300-4"><g id="g4017" fill="#000" fill-opacity="1"><use id="use4019" width="744.094" height="1052.362" x="0" y="9.963" xlink:href="#textext-41e4c300-1"/><use id="use4021" width="744.094" height="1052.362" x="7.472" y="9.963" xlink:href="#textext-41e4c300-2"/></g><g id="g4023" fill="#000" fill-opacity="1"><use id="use4025" width="744.094" height="1052.362" x="13.557" y="9.963" xlink:href="#textext-41e4c300-3"/></g></g></g></g></svg>