<svg xmlns="http://www.w3.org/2000/svg" xmlns:xlink="http://www.w3.org/1999/xlink" version="1.1"><g><g clip-path="url(#cp1)" transform="translate(-66.000000, -5.000000) matrix(1.000000, 0.000000, 0.000000, 1.000000, 0.000000, 0.000000)"><clipPath id="cp1"><polygon points="66 5 66 376 661 376 661 5"/></clipPath><polygon fill="#3F3D99" fill-rule="evenodd" stroke="none" points="85 360.408 85 12.351 141.317 12.351 141.317 360.408" opacity=".2"/><polygon fill="#3F3D99" fill-rule="evenodd" stroke="none" points="141.317 360.408 141.317 257.28 197.633 257.28 197.633 360.408" opacity=".2"/><polygon fill="#3F3D99" fill-rule="evenodd" stroke="none" points="197.633 360.408 197.633 306.266 253.95 306.266 253.95 360.408" opacity=".2"/><polygon fill="#3F3D99" fill-rule="evenodd" stroke="none" points="253.95 360.408 253.95 327.259 310.267 327.259 310.267 360.408" opacity=".2"/><polygon fill="#3F3D99" fill-rule="evenodd" stroke="none" points="310.267 360.408 310.267 338.923 366.584 338.923 366.584 360.408" opacity=".2"/><polygon fill="#3F3D99" fill-rule="evenodd" stroke="none" points="366.584 360.408 366.584 346.345 422.9 346.345 422.9 360.408" opacity=".2"/><polygon fill="#3F3D99" fill-rule="evenodd" stroke="none" points="422.9 360.408 422.9 351.483 479.217 351.483 479.217 360.408" opacity=".2"/><polygon fill="#3F3D99" fill-rule="evenodd" stroke="none" points="479.217 360.408 479.217 355.251 535.534 355.251 535.534 360.408" opacity=".2"/><polygon fill="#3F3D99" fill-rule="evenodd" stroke="none" points="535.534 360.408 535.534 358.133 591.851 358.133 591.851 360.408" opacity=".2"/><polygon fill="#3F3D99" fill-rule="evenodd" stroke="none" points="591.851 360.408 591.851 360.408 648.167 360.408 648.167 360.408" opacity=".2"/><polyline fill="none" stroke="#3F3D99" stroke-opacity="1" stroke-width="1" points="85 12.351 141.317 12.351"/><polyline fill="none" stroke="#3F3D99" stroke-opacity="1" stroke-width="1" points="141.317 257.28 197.633 257.28"/><polyline fill="none" stroke="#3F3D99" stroke-opacity="1" stroke-width="1" points="197.633 306.266 253.95 306.266"/><polyline fill="none" stroke="#3F3D99" stroke-opacity="1" stroke-width="1" points="253.95 327.259 310.267 327.259"/><polyline fill="none" stroke="#3F3D99" stroke-opacity="1" stroke-width="1" points="310.267 338.923 366.584 338.923"/><polyline fill="none" stroke="#3F3D99" stroke-opacity="1" stroke-width="1" points="366.584 346.345 422.9 346.345"/><polyline fill="none" stroke="#3F3D99" stroke-opacity="1" stroke-width="1" points="422.9 351.483 479.217 351.483"/><polyline fill="none" stroke="#3F3D99" stroke-opacity="1" stroke-width="1" points="479.217 355.251 535.534 355.251"/><polyline fill="none" stroke="#3F3D99" stroke-opacity="1" stroke-width="1" points="535.534 358.133 591.851 358.133"/><polyline fill="none" stroke="#3F3D99" stroke-opacity="1" stroke-width="1" points="591.851 360.408 648.167 360.408"/><ellipse cx="141" cy="12" fill="#3F3D99" stroke="none" opacity="1" rx="1.5" ry="1.5"/><ellipse cx="198" cy="257" fill="#3F3D99" stroke="none" opacity="1" rx="1.5" ry="1.5"/><ellipse cx="254" cy="306" fill="#3F3D99" stroke="none" opacity="1" rx="1.5" ry="1.5"/><ellipse cx="310" cy="327" fill="#3F3D99" stroke="none" opacity="1" rx="1.5" ry="1.5"/><ellipse cx="367" cy="339" fill="#3F3D99" stroke="none" opacity="1" rx="1.5" ry="1.5"/><ellipse cx="423" cy="346" fill="#3F3D99" stroke="none" opacity="1" rx="1.5" ry="1.5"/><ellipse cx="479" cy="351" fill="#3F3D99" stroke="none" opacity="1" rx="1.5" ry="1.5"/><ellipse cx="536" cy="355" fill="#3F3D99" stroke="none" opacity="1" rx="1.5" ry="1.5"/><ellipse cx="592" cy="358" fill="#3F3D99" stroke="none" opacity="1" rx="1.5" ry="1.5"/><ellipse cx="648" cy="360" fill="#3F3D99" stroke="none" opacity="1" rx="1.5" ry="1.5"/><polyline fill="none" stroke="#000" stroke-opacity="1" stroke-width=".2" points="85 360.408 85 356.408"/></g><g clip-path="url(#cp2)" transform="translate(-66.000000, -5.000000) matrix(1.000000, 0.000000, 0.000000, 1.000000, 0.000000, 0.000000)"><clipPath id="cp2"><polygon points="66 5 66 376 661 376 661 5"/></clipPath><polyline fill="none" stroke="#000" stroke-opacity="1" stroke-width=".2" points="113.158 360.408 113.158 358.008"/></g><g clip-path="url(#cp3)" transform="translate(-66.000000, -5.000000) matrix(1.000000, 0.000000, 0.000000, 1.000000, 0.000000, 0.000000)"><clipPath id="cp3"><polygon points="66 5 66 376 661 376 661 5"/></clipPath><polyline fill="none" stroke="#000" stroke-opacity="1" stroke-width=".2" points="141.317 360.408 141.317 358.008"/></g><g clip-path="url(#cp4)" transform="translate(-66.000000, -5.000000) matrix(1.000000, 0.000000, 0.000000, 1.000000, 0.000000, 0.000000)"><clipPath id="cp4"><polygon points="66 5 66 376 661 376 661 5"/></clipPath><polyline fill="none" stroke="#000" stroke-opacity="1" stroke-width=".2" points="169.475 360.408 169.475 358.008"/></g><g clip-path="url(#cp5)" transform="translate(-66.000000, -5.000000) matrix(1.000000, 0.000000, 0.000000, 1.000000, 0.000000, 0.000000)"><clipPath id="cp5"><polygon points="66 5 66 376 661 376 661 5"/></clipPath><polyline fill="none" stroke="#000" stroke-opacity="1" stroke-width=".2" points="197.633 360.408 197.633 356.408"/></g><g clip-path="url(#cp6)" transform="translate(-66.000000, -5.000000) matrix(1.000000, 0.000000, 0.000000, 1.000000, 194.133469, 363.407740)"><clipPath id="cp6"><polygon points="-1.133 -1.408 -1.133 12.592 7.867 12.592 7.867 -1.408"/></clipPath><text x="1" y="10" fill="#000" font-family="Times" font-size="10">2</text></g><g clip-path="url(#cp7)" transform="translate(-66.000000, -5.000000) matrix(1.000000, 0.000000, 0.000000, 1.000000, 0.000000, 0.000000)"><clipPath id="cp7"><polygon points="66 5 66 376 661 376 661 5"/></clipPath><polyline fill="none" stroke="#000" stroke-opacity="1" stroke-width=".2" points="225.792 360.408 225.792 358.008"/></g><g clip-path="url(#cp8)" transform="translate(-66.000000, -5.000000) matrix(1.000000, 0.000000, 0.000000, 1.000000, 0.000000, 0.000000)"><clipPath id="cp8"><polygon points="66 5 66 376 661 376 661 5"/></clipPath><polyline fill="none" stroke="#000" stroke-opacity="1" stroke-width=".2" points="253.95 360.408 253.95 358.008"/></g><g clip-path="url(#cp9)" transform="translate(-66.000000, -5.000000) matrix(1.000000, 0.000000, 0.000000, 1.000000, 0.000000, 0.000000)"><clipPath id="cp9"><polygon points="66 5 66 376 661 376 661 5"/></clipPath><polyline fill="none" stroke="#000" stroke-opacity="1" stroke-width=".2" points="282.109 360.408 282.109 358.008"/></g><g clip-path="url(#cp10)" transform="translate(-66.000000, -5.000000) matrix(1.000000, 0.000000, 0.000000, 1.000000, 0.000000, 0.000000)"><clipPath id="cp10"><polygon points="66 5 66 376 661 376 661 5"/></clipPath><polyline fill="none" stroke="#000" stroke-opacity="1" stroke-width=".2" points="310.267 360.408 310.267 356.408"/></g><g clip-path="url(#cp11)" transform="translate(-66.000000, -5.000000) matrix(1.000000, 0.000000, 0.000000, 1.000000, 306.266939, 363.407740)"><clipPath id="cp11"><polygon points="-1.267 -1.408 -1.267 12.592 8.733 12.592 8.733 -1.408"/></clipPath><text x="1" y="10" fill="#000" font-family="Times" font-size="10">4</text></g><g clip-path="url(#cp12)" transform="translate(-66.000000, -5.000000) matrix(1.000000, 0.000000, 0.000000, 1.000000, 0.000000, 0.000000)"><clipPath id="cp12"><polygon points="66 5 66 376 661 376 661 5"/></clipPath><polyline fill="none" stroke="#000" stroke-opacity="1" stroke-width=".2" points="338.425 360.408 338.425 358.008"/></g><g clip-path="url(#cp13)" transform="translate(-66.000000, -5.000000) matrix(1.000000, 0.000000, 0.000000, 1.000000, 0.000000, 0.000000)"><clipPath id="cp13"><polygon points="66 5 66 376 661 376 661 5"/></clipPath><polyline fill="none" stroke="#000" stroke-opacity="1" stroke-width=".2" points="366.584 360.408 366.584 358.008"/></g><g clip-path="url(#cp14)" transform="translate(-66.000000, -5.000000) matrix(1.000000, 0.000000, 0.000000, 1.000000, 0.000000, 0.000000)"><clipPath id="cp14"><polygon points="66 5 66 376 661 376 661 5"/></clipPath><polyline fill="none" stroke="#000" stroke-opacity="1" stroke-width=".2" points="394.742 360.408 394.742 358.008"/></g><g clip-path="url(#cp15)" transform="translate(-66.000000, -5.000000) matrix(1.000000, 0.000000, 0.000000, 1.000000, 0.000000, 0.000000)"><clipPath id="cp15"><polygon points="66 5 66 376 661 376 661 5"/></clipPath><polyline fill="none" stroke="#000" stroke-opacity="1" stroke-width=".2" points="422.9 360.408 422.9 356.408"/></g><g clip-path="url(#cp16)" transform="translate(-66.000000, -5.000000) matrix(1.000000, 0.000000, 0.000000, 1.000000, 419.400408, 363.407740)"><clipPath id="cp16"><polygon points="-1.4 -1.408 -1.4 12.592 7.6 12.592 7.6 -1.408"/></clipPath><text x="1" y="10" fill="#000" font-family="Times" font-size="10">6</text></g><g clip-path="url(#cp17)" transform="translate(-66.000000, -5.000000) matrix(1.000000, 0.000000, 0.000000, 1.000000, 0.000000, 0.000000)"><clipPath id="cp17"><polygon points="66 5 66 376 661 376 661 5"/></clipPath><polyline fill="none" stroke="#000" stroke-opacity="1" stroke-width=".2" points="451.059 360.408 451.059 358.008"/></g><g clip-path="url(#cp18)" transform="translate(-66.000000, -5.000000) matrix(1.000000, 0.000000, 0.000000, 1.000000, 0.000000, 0.000000)"><clipPath id="cp18"><polygon points="66 5 66 376 661 376 661 5"/></clipPath><polyline fill="none" stroke="#000" stroke-opacity="1" stroke-width=".2" points="479.217 360.408 479.217 358.008"/></g><g clip-path="url(#cp19)" transform="translate(-66.000000, -5.000000) matrix(1.000000, 0.000000, 0.000000, 1.000000, 0.000000, 0.000000)"><clipPath id="cp19"><polygon points="66 5 66 376 661 376 661 5"/></clipPath><polyline fill="none" stroke="#000" stroke-opacity="1" stroke-width=".2" points="507.376 360.408 507.376 358.008"/></g><g clip-path="url(#cp20)" transform="translate(-66.000000, -5.000000) matrix(1.000000, 0.000000, 0.000000, 1.000000, 0.000000, 0.000000)"><clipPath id="cp20"><polygon points="66 5 66 376 661 376 661 5"/></clipPath><polyline fill="none" stroke="#000" stroke-opacity="1" stroke-width=".2" points="535.534 360.408 535.534 356.408"/></g><g clip-path="url(#cp21)" transform="translate(-66.000000, -5.000000) matrix(1.000000, 0.000000, 0.000000, 1.000000, 532.033878, 363.407740)"><clipPath id="cp21"><polygon points="-1.034 -1.408 -1.034 12.592 7.966 12.592 7.966 -1.408"/></clipPath><text x="1" y="10" fill="#000" font-family="Times" font-size="10">8</text></g><g clip-path="url(#cp22)" transform="translate(-66.000000, -5.000000) matrix(1.000000, 0.000000, 0.000000, 1.000000, 0.000000, 0.000000)"><clipPath id="cp22"><polygon points="66 5 66 376 661 376 661 5"/></clipPath><polyline fill="none" stroke="#000" stroke-opacity="1" stroke-width=".2" points="563.692 360.408 563.692 358.008"/></g><g clip-path="url(#cp23)" transform="translate(-66.000000, -5.000000) matrix(1.000000, 0.000000, 0.000000, 1.000000, 0.000000, 0.000000)"><clipPath id="cp23"><polygon points="66 5 66 376 661 376 661 5"/></clipPath><polyline fill="none" stroke="#000" stroke-opacity="1" stroke-width=".2" points="591.851 360.408 591.851 358.008"/></g><g clip-path="url(#cp24)" transform="translate(-66.000000, -5.000000) matrix(1.000000, 0.000000, 0.000000, 1.000000, 0.000000, 0.000000)"><clipPath id="cp24"><polygon points="66 5 66 376 661 376 661 5"/></clipPath><polyline fill="none" stroke="#000" stroke-opacity="1" stroke-width=".2" points="620.009 360.408 620.009 358.008"/></g><g clip-path="url(#cp25)" transform="translate(-66.000000, -5.000000) matrix(1.000000, 0.000000, 0.000000, 1.000000, 0.000000, 0.000000)"><clipPath id="cp25"><polygon points="66 5 66 376 661 376 661 5"/></clipPath><polyline fill="none" stroke="#000" stroke-opacity="1" stroke-width=".2" points="648.167 360.408 648.167 356.408"/></g><g clip-path="url(#cp26)" transform="translate(-66.000000, -5.000000) matrix(1.000000, 0.000000, 0.000000, 1.000000, 641.667347, 363.407740)"><clipPath id="cp26"><polygon points="-.667 -1.408 -.667 12.592 14.333 12.592 14.333 -1.408"/></clipPath><text x="1" y="10" fill="#000" font-family="Times" font-size="10">10</text></g><g clip-path="url(#cp27)" transform="translate(-66.000000, -5.000000) matrix(1.000000, 0.000000, 0.000000, 1.000000, 0.000000, 0.000000)"><clipPath id="cp27"><polygon points="66 5 66 376 661 376 661 5"/></clipPath><polyline fill="none" stroke="#000" stroke-opacity="1" stroke-width=".2" points="73.267 360.408 659.9 360.408"/></g><g clip-path="url(#cp28)" transform="translate(-66.000000, -5.000000) matrix(1.000000, 0.000000, 0.000000, 1.000000, 0.000000, 0.000000)"><clipPath id="cp28"><polygon points="66 5 66 376 661 376 661 5"/></clipPath><polyline fill="none" stroke="#000" stroke-opacity="1" stroke-width=".2" points="85 365.048 87.4 365.048"/></g><g clip-path="url(#cp29)" transform="translate(-66.000000, -5.000000) matrix(1.000000, 0.000000, 0.000000, 1.000000, 0.000000, 0.000000)"><clipPath id="cp29"><polygon points="66 5 66 376 661 376 661 5"/></clipPath><polyline fill="none" stroke="#000" stroke-opacity="1" stroke-width=".2" points="85 350.353 87.4 350.353"/></g><g clip-path="url(#cp30)" transform="translate(-66.000000, -5.000000) matrix(1.000000, 0.000000, 0.000000, 1.000000, 0.000000, 0.000000)"><clipPath id="cp30"><polygon points="66 5 66 376 661 376 661 5"/></clipPath><polyline fill="none" stroke="#000" stroke-opacity="1" stroke-width=".2" points="85 335.657 87.4 335.657"/></g><g clip-path="url(#cp31)" transform="translate(-66.000000, -5.000000) matrix(1.000000, 0.000000, 0.000000, 1.000000, 0.000000, 0.000000)"><clipPath id="cp31"><polygon points="66 5 66 376 661 376 661 5"/></clipPath><polyline fill="none" stroke="#000" stroke-opacity="1" stroke-width=".2" points="85 320.961 87.4 320.961"/></g><g clip-path="url(#cp32)" transform="translate(-66.000000, -5.000000) matrix(1.000000, 0.000000, 0.000000, 1.000000, 0.000000, 0.000000)"><clipPath id="cp32"><polygon points="66 5 66 376 661 376 661 5"/></clipPath><polyline fill="none" stroke="#000" stroke-opacity="1" stroke-width=".2" points="85 306.266 89 306.266"/></g><g clip-path="url(#cp33)" transform="translate(-66.000000, -5.000000) matrix(1.000000, 0.000000, 0.000000, 1.000000, 66.000000, 300.265608)"><clipPath id="cp33"><polygon points="0 -1.266 0 12.734 17 12.734 17 -1.266"/></clipPath><text x="1" y="10" fill="#000" font-family="Times" font-size="10">1.0</text></g><g clip-path="url(#cp34)" transform="translate(-66.000000, -5.000000) matrix(1.000000, 0.000000, 0.000000, 1.000000, 0.000000, 0.000000)"><clipPath id="cp34"><polygon points="66 5 66 376 661 376 661 5"/></clipPath><polyline fill="none" stroke="#000" stroke-opacity="1" stroke-width=".2" points="85 291.57 87.4 291.57"/></g><g clip-path="url(#cp35)" transform="translate(-66.000000, -5.000000) matrix(1.000000, 0.000000, 0.000000, 1.000000, 0.000000, 0.000000)"><clipPath id="cp35"><polygon points="66 5 66 376 661 376 661 5"/></clipPath><polyline fill="none" stroke="#000" stroke-opacity="1" stroke-width=".2" points="85 276.874 87.4 276.874"/></g><g clip-path="url(#cp36)" transform="translate(-66.000000, -5.000000) matrix(1.000000, 0.000000, 0.000000, 1.000000, 0.000000, 0.000000)"><clipPath id="cp36"><polygon points="66 5 66 376 661 376 661 5"/></clipPath><polyline fill="none" stroke="#000" stroke-opacity="1" stroke-width=".2" points="85 262.178 87.4 262.178"/></g><g clip-path="url(#cp37)" transform="translate(-66.000000, -5.000000) matrix(1.000000, 0.000000, 0.000000, 1.000000, 0.000000, 0.000000)"><clipPath id="cp37"><polygon points="66 5 66 376 661 376 661 5"/></clipPath><polyline fill="none" stroke="#000" stroke-opacity="1" stroke-width=".2" points="85 247.483 87.4 247.483"/></g><g clip-path="url(#cp38)" transform="translate(-66.000000, -5.000000) matrix(1.000000, 0.000000, 0.000000, 1.000000, 0.000000, 0.000000)"><clipPath id="cp38"><polygon points="66 5 66 376 661 376 661 5"/></clipPath><polyline fill="none" stroke="#000" stroke-opacity="1" stroke-width=".2" points="85 232.787 89 232.787"/></g><g clip-path="url(#cp39)" transform="translate(-66.000000, -5.000000) matrix(1.000000, 0.000000, 0.000000, 1.000000, 66.000000, 226.787001)"><clipPath id="cp39"><polygon points="0 -.787 0 13.213 17 13.213 17 -.787"/></clipPath><text x="1" y="10" fill="#000" font-family="Times" font-size="10">1.5</text></g><g clip-path="url(#cp40)" transform="translate(-66.000000, -5.000000) matrix(1.000000, 0.000000, 0.000000, 1.000000, 0.000000, 0.000000)"><clipPath id="cp40"><polygon points="66 5 66 376 661 376 661 5"/></clipPath><polyline fill="none" stroke="#000" stroke-opacity="1" stroke-width=".2" points="85 218.091 87.4 218.091"/></g><g clip-path="url(#cp41)" transform="translate(-66.000000, -5.000000) matrix(1.000000, 0.000000, 0.000000, 1.000000, 0.000000, 0.000000)"><clipPath id="cp41"><polygon points="66 5 66 376 661 376 661 5"/></clipPath><polyline fill="none" stroke="#000" stroke-opacity="1" stroke-width=".2" points="85 203.396 87.4 203.396"/></g><g clip-path="url(#cp42)" transform="translate(-66.000000, -5.000000) matrix(1.000000, 0.000000, 0.000000, 1.000000, 0.000000, 0.000000)"><clipPath id="cp42"><polygon points="66 5 66 376 661 376 661 5"/></clipPath><polyline fill="none" stroke="#000" stroke-opacity="1" stroke-width=".2" points="85 188.7 87.4 188.7"/></g><g clip-path="url(#cp43)" transform="translate(-66.000000, -5.000000) matrix(1.000000, 0.000000, 0.000000, 1.000000, 0.000000, 0.000000)"><clipPath id="cp43"><polygon points="66 5 66 376 661 376 661 5"/></clipPath><polyline fill="none" stroke="#000" stroke-opacity="1" stroke-width=".2" points="85 174.004 87.4 174.004"/></g><g clip-path="url(#cp44)" transform="translate(-66.000000, -5.000000) matrix(1.000000, 0.000000, 0.000000, 1.000000, 0.000000, 0.000000)"><clipPath id="cp44"><polygon points="66 5 66 376 661 376 661 5"/></clipPath><polyline fill="none" stroke="#000" stroke-opacity="1" stroke-width=".2" points="85 159.308 89 159.308"/></g><g clip-path="url(#cp45)" transform="translate(-66.000000, -5.000000) matrix(1.000000, 0.000000, 0.000000, 1.000000, 66.000000, 153.308393)"><clipPath id="cp45"><polygon points="0 -1.308 0 12.692 17 12.692 17 -1.308"/></clipPath><text x="1" y="10" fill="#000" font-family="Times" font-size="10">2.0</text></g><g clip-path="url(#cp46)" transform="translate(-66.000000, -5.000000) matrix(1.000000, 0.000000, 0.000000, 1.000000, 0.000000, 0.000000)"><clipPath id="cp46"><polygon points="66 5 66 376 661 376 661 5"/></clipPath><polyline fill="none" stroke="#000" stroke-opacity="1" stroke-width=".2" points="85 144.613 87.4 144.613"/></g><g clip-path="url(#cp47)" transform="translate(-66.000000, -5.000000) matrix(1.000000, 0.000000, 0.000000, 1.000000, 0.000000, 0.000000)"><clipPath id="cp47"><polygon points="66 5 66 376 661 376 661 5"/></clipPath><polyline fill="none" stroke="#000" stroke-opacity="1" stroke-width=".2" points="85 129.917 87.4 129.917"/></g><g clip-path="url(#cp48)" transform="translate(-66.000000, -5.000000) matrix(1.000000, 0.000000, 0.000000, 1.000000, 0.000000, 0.000000)"><clipPath id="cp48"><polygon points="66 5 66 376 661 376 661 5"/></clipPath><polyline fill="none" stroke="#000" stroke-opacity="1" stroke-width=".2" points="85 115.221 87.4 115.221"/></g><g clip-path="url(#cp49)" transform="translate(-66.000000, -5.000000) matrix(1.000000, 0.000000, 0.000000, 1.000000, 0.000000, 0.000000)"><clipPath id="cp49"><polygon points="66 5 66 376 661 376 661 5"/></clipPath><polyline fill="none" stroke="#000" stroke-opacity="1" stroke-width=".2" points="85 100.526 87.4 100.526"/></g><g clip-path="url(#cp50)" transform="translate(-66.000000, -5.000000) matrix(1.000000, 0.000000, 0.000000, 1.000000, 0.000000, 0.000000)"><clipPath id="cp50"><polygon points="66 5 66 376 661 376 661 5"/></clipPath><polyline fill="none" stroke="#000" stroke-opacity="1" stroke-width=".2" points="85 85.83 89 85.83"/></g><g clip-path="url(#cp51)" transform="translate(-66.000000, -5.000000) matrix(1.000000, 0.000000, 0.000000, 1.000000, 66.000000, 79.829786)"><clipPath id="cp51"><polygon points="0 -.83 0 13.17 17 13.17 17 -.83"/></clipPath><text x="1" y="10" fill="#000" font-family="Times" font-size="10">2.5</text></g><g clip-path="url(#cp52)" transform="translate(-66.000000, -5.000000) matrix(1.000000, 0.000000, 0.000000, 1.000000, 0.000000, 0.000000)"><clipPath id="cp52"><polygon points="66 5 66 376 661 376 661 5"/></clipPath><polyline fill="none" stroke="#000" stroke-opacity="1" stroke-width=".2" points="85 71.134 87.4 71.134"/></g><g clip-path="url(#cp53)" transform="translate(-66.000000, -5.000000) matrix(1.000000, 0.000000, 0.000000, 1.000000, 0.000000, 0.000000)"><clipPath id="cp53"><polygon points="66 5 66 376 661 376 661 5"/></clipPath><polyline fill="none" stroke="#000" stroke-opacity="1" stroke-width=".2" points="85 56.438 87.4 56.438"/></g><g clip-path="url(#cp54)" transform="translate(-66.000000, -5.000000) matrix(1.000000, 0.000000, 0.000000, 1.000000, 0.000000, 0.000000)"><clipPath id="cp54"><polygon points="66 5 66 376 661 376 661 5"/></clipPath><polyline fill="none" stroke="#000" stroke-opacity="1" stroke-width=".2" points="85 41.743 87.4 41.743"/></g><g clip-path="url(#cp55)" transform="translate(-66.000000, -5.000000) matrix(1.000000, 0.000000, 0.000000, 1.000000, 0.000000, 0.000000)"><clipPath id="cp55"><polygon points="66 5 66 376 661 376 661 5"/></clipPath><polyline fill="none" stroke="#000" stroke-opacity="1" stroke-width=".2" points="85 27.047 87.4 27.047"/></g><g clip-path="url(#cp56)" transform="translate(-66.000000, -5.000000) matrix(1.000000, 0.000000, 0.000000, 1.000000, 0.000000, 0.000000)"><clipPath id="cp56"><polygon points="66 5 66 376 661 376 661 5"/></clipPath><polyline fill="none" stroke="#000" stroke-opacity="1" stroke-width=".2" points="85 12.351 89 12.351"/></g><g clip-path="url(#cp57)" transform="translate(-66.000000, -5.000000) matrix(1.000000, 0.000000, 0.000000, 1.000000, 66.000000, 6.351178)"><clipPath id="cp57"><polygon points="0 -1.351 0 12.649 17 12.649 17 -1.351"/></clipPath><text x="1" y="10" fill="#000" font-family="Times" font-size="10">3.0</text></g><g clip-path="url(#cp58)" transform="translate(-66.000000, -5.000000) matrix(1.000000, 0.000000, 0.000000, 1.000000, 0.000000, 0.000000)"><clipPath id="cp58"><polygon points="66 5 66 376 661 376 661 5"/></clipPath><polyline fill="none" stroke="#000" stroke-opacity="1" stroke-width=".2" points="85 367.659 85 5.1"/></g></g></svg>