<svg xmlns="http://www.w3.org/2000/svg" xmlns:ns0="http://www.iki.fi/pav/software/textext/" xmlns:svg="http://www.w3.org/2000/svg" xmlns:xlink="http://www.w3.org/1999/xlink" id="svg2" width="744.094" height="1052.362" version="1.1"><defs id="defs4"><marker id="Arrow1Mend" orient="auto" overflow="visible" refX="0" refY="0"><path id="path4730" fill-rule="evenodd" stroke="#000" stroke-width="1pt" d="M 0.0,0.0 L 5.0,-5.0 L -12.5,0.0 L 5.0,5.0 L 0.0,0.0 z" transform="scale(0.4) rotate(180) translate(10,0)"/></marker><marker id="Arrow1Mstart" orient="auto" overflow="visible" refX="0" refY="0"><path id="path4727" fill-rule="evenodd" stroke="#000" stroke-width="1pt" d="M 0.0,0.0 L 5.0,-5.0 L -12.5,0.0 L 5.0,5.0 L 0.0,0.0 z" transform="scale(0.4) translate(10,0)"/></marker><marker id="Arrow2Mend" orient="auto" overflow="visible" refX="0" refY="0"><path id="path4748" fill-rule="evenodd" stroke-linejoin="round" stroke-width=".625" d="M 8.7185878,4.0337352 L -2.2072895,0.016013256 L 8.7185884,-4.0017078 C 6.9730900,-1.6296469 6.9831476,1.6157441 8.7185878,4.0337352 z" transform="scale(0.6) rotate(180) translate(0,0)"/></marker><marker id="Arrow1Lstart" orient="auto" overflow="visible" refX="0" refY="0"><path id="path4721" fill-rule="evenodd" stroke="#000" stroke-width="1pt" d="M 0.0,0.0 L 5.0,-5.0 L -12.5,0.0 L 5.0,5.0 L 0.0,0.0 z" transform="scale(0.8) translate(12.5,0)"/></marker><marker id="Arrow2Lend" orient="auto" overflow="visible" refX="0" refY="0"><path id="path4742" fill-rule="evenodd" stroke-linejoin="round" stroke-width=".625" d="M 8.7185878,4.0337352 L -2.2072895,0.016013256 L 8.7185884,-4.0017078 C 6.9730900,-1.6296469 6.9831476,1.6157441 8.7185878,4.0337352 z" transform="scale(1.1) rotate(180) translate(1,0)"/></marker><marker id="Arrow1Lend" orient="auto" overflow="visible" refX="0" refY="0"><path id="path4724" fill-rule="evenodd" stroke="#000" stroke-width="1pt" d="M 0.0,0.0 L 5.0,-5.0 L -12.5,0.0 L 5.0,5.0 L 0.0,0.0 z" transform="scale(0.8) rotate(180) translate(12.5,0)"/></marker></defs><metadata id="metadata7"/><g id="layer2"><path id="path3782" fill="#729fcf" stroke="#000" stroke-dasharray="none" stroke-linecap="butt" stroke-linejoin="miter" stroke-miterlimit="4" stroke-opacity="1" stroke-width="0" d="m 240.36474,542.81811 90.82067,-0.12158 -0.0608,-51.12462 c 0,0 -51.54879,-28.45105 -90.7513,-73.15567"/><path id="path2994" fill="none" stroke="#000" stroke-dasharray="none" stroke-linecap="butt" stroke-linejoin="miter" stroke-miterlimit="4" stroke-opacity="1" stroke-width=".5" d="m 240.37332,418.33026 0,124.48519"/><path id="path2994-2" fill="none" stroke="#000" stroke-dasharray="none" stroke-linecap="butt" stroke-linejoin="miter" stroke-miterlimit="4" stroke-opacity="1" stroke-width=".5" d="m 331.11501,491.72995 0,50.7162"/><g id="g4083" transform="matrix(2,0,0,2,-212.5189,292.29946)" ns0:text="$1$"><defs id="defs4085"><g id="g4087"><symbol id="textext-09ced9dc-0" overflow="visible"><path id="path4090" stroke="none"/></symbol><symbol id="textext-09ced9dc-1" overflow="visible"><path id="path4093" stroke="none" d="m 2.9375,-6.375 c 0,-0.25 0,-0.265625 -0.234375,-0.265625 C 2.078125,-6 1.203125,-6 0.890625,-6 l 0,0.3125 c 0.203125,0 0.78125,0 1.296875,-0.265625 l 0,5.171875 c 0,0.359375 -0.03125,0.46875 -0.921875,0.46875 l -0.3125,0 0,0.3125 c 0.34375,-0.03125 1.203125,-0.03125 1.609375,-0.03125 0.390625,0 1.265625,0 1.609375,0.03125 l 0,-0.3125 -0.3125,0 c -0.90625,0 -0.921875,-0.109375 -0.921875,-0.46875 z"/></symbol></g></defs><g id="textext-09ced9dc-2"><g id="g4096" fill="#000" fill-opacity="1"><use id="use4098" width="744.094" height="1052.362" x="223.432" y="134.765" xlink:href="#textext-09ced9dc-1"/></g></g></g><g id="g4140" transform="matrix(2,0,0,2,-118.98307,292.98722)" ns0:text="e"><defs id="defs4142"><g id="g4144"><symbol id="textext-e990ae8f-0" overflow="visible"><path id="path4147" stroke="none"/></symbol><symbol id="textext-e990ae8f-1" overflow="visible"><path id="path4150" stroke="none" d="M 1.109375,-2.515625 C 1.171875,-4 2.015625,-4.25 2.359375,-4.25 c 1.015625,0 1.125,1.34375 1.125,1.734375 z m 0,0.21875 2.78125,0 c 0.21875,0 0.25,0 0.25,-0.21875 0,-0.984375 -0.546875,-1.953125 -1.78125,-1.953125 -1.15625,0 -2.078125,1.03125 -2.078125,2.28125 0,1.328125 1.046875,2.296875 2.1875,2.296875 C 3.6875,0.109375 4.140625,-1 4.140625,-1.1875 4.140625,-1.28125 4.0625,-1.3125 4,-1.3125 c -0.078125,0 -0.109375,0.0625 -0.125,0.140625 -0.34375,1.03125 -1.25,1.03125 -1.34375,1.03125 -0.5,0 -0.890625,-0.296875 -1.125,-0.671875 -0.296875,-0.46875 -0.296875,-1.125 -0.296875,-1.484375 z"/></symbol></g></defs><g id="textext-e990ae8f-2"><g id="g4153" fill="#000" fill-opacity="1"><use id="use4155" width="744.094" height="1052.362" x="223.432" y="134.765" xlink:href="#textext-e990ae8f-1"/></g></g></g></g><g id="layer1"><g id="g4533"><path id="path2989" fill="none" stroke="#000" stroke-linecap="butt" stroke-linejoin="miter" stroke-opacity="1" stroke-width="1" marker-end="url(#Arrow1Mend)" marker-mid="none" marker-start="url(#Arrow1Mstart)" d="m 173.1307,288.83635 0,253.86018 315.52522,0"/><path id="path2991" fill="none" stroke="#000" stroke-linecap="butt" stroke-linejoin="miter" stroke-opacity="1" stroke-width="1" d="m 173.14444,313.70425 c 0,0 23.23683,77.51578 119.84278,152.68348 81.01963,63.04021 192.65721,76.29988 192.65721,76.29988"/></g></g><g id="g4502" transform="translate(0,-1.2368655)"><g id="g4306" transform="matrix(2,0,0,2,-289.89229,37.139225)" ns0:text="$\\frac 1 t$"><defs id="defs4308"><g id="g4310"><symbol id="textext-472edc2f-0" overflow="visible"><path id="path4313" stroke="none"/></symbol><symbol id="textext-472edc2f-1" overflow="visible"><path id="path4316" stroke="none" d="m 2.328125,-4.4375 c 0,-0.1875 0,-0.1875 -0.203125,-0.1875 -0.453125,0.4375 -1.078125,0.4375 -1.359375,0.4375 l 0,0.25 c 0.15625,0 0.625,0 1,-0.1875 l 0,3.546875 c 0,0.234375 0,0.328125 -0.6875,0.328125 l -0.265625,0 0,0.25 c 0.125,0 0.984375,-0.03125 1.234375,-0.03125 0.21875,0 1.09375,0.03125 1.25,0.03125 l 0,-0.25 -0.265625,0 c -0.703125,0 -0.703125,-0.09375 -0.703125,-0.328125 z"/></symbol><symbol id="textext-472edc2f-2" overflow="visible"><path id="path4319" stroke="none"/></symbol><symbol id="textext-472edc2f-3" overflow="visible"><path id="path4322" stroke="none" d="m 1.71875,-2.75 0.703125,0 c 0.140625,0 0.21875,0 0.21875,-0.15625 C 2.640625,-3 2.5625,-3 2.4375,-3 l -0.65625,0 0.25,-1.03125 C 2.046875,-4.0625 2.0625,-4.109375 2.0625,-4.125 c 0,-0.140625 -0.109375,-0.234375 -0.25,-0.234375 -0.171875,0 -0.265625,0.125 -0.328125,0.296875 C 1.4375,-3.875 1.53125,-4.21875 1.21875,-3 l -0.703125,0 c -0.125,0 -0.21875,0 -0.21875,0.15625 C 0.296875,-2.75 0.375,-2.75 0.5,-2.75 l 0.65625,0 L 0.75,-1.109375 C 0.703125,-0.9375 0.640625,-0.6875 0.640625,-0.59375 c 0,0.40625 0.359375,0.65625 0.75,0.65625 0.78125,0 1.21875,-0.96875 1.21875,-1.0625 0,-0.09375 -0.09375,-0.09375 -0.109375,-0.09375 -0.09375,0 -0.09375,0.015625 -0.15625,0.140625 -0.1875,0.4375 -0.546875,0.828125 -0.921875,0.828125 -0.15625,0 -0.25,-0.09375 -0.25,-0.34375 0,-0.0625 0.03125,-0.21875 0.046875,-0.28125 z"/></symbol></g></defs><g id="textext-472edc2f-4"><g id="g4325" fill="#000" fill-opacity="1"><use id="use4327" width="744.094" height="1052.362" x="224.628" y="130.842" xlink:href="#textext-472edc2f-1"/></g><path id="path4329" fill="none" stroke="#000" stroke-linecap="butt" stroke-linejoin="miter" stroke-miterlimit="10" stroke-opacity="1" stroke-width="1" d="m -0.128,-0.226 4,0" transform="matrix(1,0,0,-1,224.628,132.274)"/><g id="g4331" fill="#000" fill-opacity="1"><use id="use4333" width="744.094" height="1052.362" x="225.108" y="138.2" xlink:href="#textext-472edc2f-3"/></g></g></g></g><g id="g4521" transform="translate(5.5021075,-5.0964088)"><g id="g4429" transform="matrix(2,0,0,2,46.681944,278.54419)" ns0:text="$t$"><defs id="defs4431"><g id="g4433"><symbol id="textext-5f033f2b-0" overflow="visible"><path id="path4436" stroke="none"/></symbol><symbol id="textext-5f033f2b-1" overflow="visible"><path id="path4439" stroke="none" d="m 2.046875,-3.984375 0.9375,0 c 0.203125,0 0.3125,0 0.3125,-0.203125 0,-0.109375 -0.109375,-0.109375 -0.28125,-0.109375 l -0.875,0 C 2.5,-5.71875 2.546875,-5.90625 2.546875,-5.96875 c 0,-0.171875 -0.125,-0.265625 -0.296875,-0.265625 -0.03125,0 -0.3125,0 -0.390625,0.359375 l -0.390625,1.578125 -0.9375,0 c -0.203125,0 -0.296875,0 -0.296875,0.1875 0,0.125 0.078125,0.125 0.28125,0.125 l 0.875,0 C 0.671875,-1.15625 0.625,-0.984375 0.625,-0.8125 0.625,-0.265625 1,0.109375 1.546875,0.109375 2.5625,0.109375 3.125,-1.34375 3.125,-1.421875 3.125,-1.53125 3.046875,-1.53125 3.015625,-1.53125 2.921875,-1.53125 2.90625,-1.5 2.859375,-1.390625 2.4375,-0.34375 1.90625,-0.109375 1.5625,-0.109375 c -0.203125,0 -0.3125,-0.125 -0.3125,-0.453125 0,-0.25 0.03125,-0.3125 0.0625,-0.484375 z"/></symbol></g></defs><g id="textext-5f033f2b-2"><g id="g4442" fill="#000" fill-opacity="1"><use id="use4444" width="744.094" height="1052.362" x="223.432" y="134.765" xlink:href="#textext-5f033f2b-1"/></g></g></g></g></svg>