<svg xmlns="http://www.w3.org/2000/svg" xmlns:ns0="http://www.iki.fi/pav/software/textext/" xmlns:svg="http://www.w3.org/2000/svg" xmlns:xlink="http://www.w3.org/1999/xlink" id="svg4543" width="744.094" height="1052.362" version="1.1"><metadata id="metadata4548"/><g id="layer2" opacity=".2"><g id="g10529" transform="translate(-680,-867.63782)"><g id="g10531"><path id="path10533" fill="none" stroke="#000" stroke-width="2" d="m 100,0 0,2000"/><path id="path10535" fill="none" stroke="#000" stroke-width="2" d="m 200,0 0,2000"/><path id="path10537" fill="none" stroke="#000" stroke-width="2" d="m 300,0 0,2000"/><path id="path10539" fill="none" stroke="#000" stroke-width="2" d="m 400,0 0,2000"/><path id="path10541" fill="none" stroke="#000" stroke-width="2" d="m 500,0 0,2000"/><path id="path10543" fill="none" stroke="#000" stroke-width="2" d="m 600,0 0,2000"/><path id="path10545" fill="none" stroke="#000" stroke-width="2" d="m 700,0 0,2000"/><path id="path10547" fill="none" stroke="#000" stroke-width="2" d="m 800,0 0,2000"/><path id="path10549" fill="none" stroke="#000" stroke-width="2" d="m 900,0 0,2000"/><path id="path10551" fill="none" stroke="#000" stroke-width="2" d="m 1000,0 0,2000"/><path id="path10553" fill="none" stroke="#000" stroke-width="2" d="m 1100,0 0,2000"/><path id="path10555" fill="none" stroke="#000" stroke-width="2" d="m 1200,0 0,2000"/><path id="path10557" fill="none" stroke="#000" stroke-width="2" d="m 1300,0 0,2000"/><path id="path10559" fill="none" stroke="#000" stroke-width="2" d="m 1400,0 0,2000"/><path id="path10561" fill="none" stroke="#000" stroke-width="2" d="m 1500,0 0,2000"/><path id="path10563" fill="none" stroke="#000" stroke-width="2" d="m 1600,0 0,2000"/><path id="path10565" fill="none" stroke="#000" stroke-width="2" d="m 1700,0 0,2000"/><path id="path10567" fill="none" stroke="#000" stroke-width="2" d="m 1800,0 0,2000"/><path id="path10569" fill="none" stroke="#000" stroke-width="2" d="m 1900,0 0,2000"/></g><g id="g10571"><path id="path10573" fill="none" stroke="#000" stroke-width="2" d="m 0,100 2000,0"/><path id="path10575" fill="none" stroke="#000" stroke-width="2" d="m 0,200 2000,0"/><path id="path10577" fill="none" stroke="#000" stroke-width="2" d="m 0,300 2000,0"/><path id="path10579" fill="none" stroke="#000" stroke-width="2" d="m 0,400 2000,0"/><path id="path10581" fill="none" stroke="#000" stroke-width="2" d="m 0,500 2000,0"/><path id="path10583" fill="none" stroke="#000" stroke-width="2" d="m 0,600 2000,0"/><path id="path10585" fill="none" stroke="#000" stroke-width="2" d="m 0,700 2000,0"/><path id="path10587" fill="none" stroke="#000" stroke-width="2" d="m 0,800 2000,0"/><path id="path10589" fill="none" stroke="#000" stroke-width="2" d="m 0,900 2000,0"/><path id="path10591" fill="none" stroke="#000" stroke-width="2" d="m 0,1000 2000,0"/><path id="path10593" fill="none" stroke="#000" stroke-width="2" d="m 0,1100 2000,0"/><path id="path10595" fill="none" stroke="#000" stroke-width="2" d="m 0,1200 2000,0"/><path id="path10597" fill="none" stroke="#000" stroke-width="2" d="m 0,1300 2000,0"/><path id="path10599" fill="none" stroke="#000" stroke-width="2" d="m 0,1400 2000,0"/><path id="path10601" fill="none" stroke="#000" stroke-width="2" d="m 0,1500 2000,0"/><path id="path10603" fill="none" stroke="#000" stroke-width="2" d="m 0,1600 2000,0"/><path id="path10605" fill="none" stroke="#000" stroke-width="2" d="m 0,1700 2000,0"/><path id="path10607" fill="none" stroke="#000" stroke-width="2" d="m 0,1800 2000,0"/><path id="path10609" fill="none" stroke="#000" stroke-width="2" d="m 0,1900 2000,0"/></g><rect id="rect10611" width="2000" height="2000" x="0" y="0" fill="none" stroke="#000" stroke-width="0"/></g></g><g id="layer1"><g id="g3074" transform="translate(-17.19194,33.673153)"><path id="path4570" fill="none" stroke="#000" stroke-linecap="butt" stroke-linejoin="miter" stroke-opacity="1" stroke-width="1" d="m -702.80806,98.68903 2089.47746,0 -6.7492,0 7.7756,4.48921"/><path id="path4570-3" fill="none" stroke="#000" stroke-linecap="butt" stroke-linejoin="miter" stroke-opacity="1" stroke-width="1" d="m 340.19926,1146.1856 0,-2089.47753 0,6.7492 4.48922,-7.7756"/></g><flowRoot font-variant="normal" style="text-align:start;line-height:125%;-inkscape-font-specification:Sans Italic" id="flowRoot3037" fill="#000" fill-opacity="1" stroke="none" font-family="CMU Serif" font-size="16" font-stretch="normal" font-style="italic" font-weight="500" letter-spacing="0" text-anchor="start" transform="translate(-2.84375,92.178759)" word-spacing="0" writing-mode="lr-tb" xml:space="preserve"><flowRegion id="flowRegion3039"><rect id="rect3041" width="212.701" height="231.741" x="322.839" y="-1100.469"/></flowRegion><flowPara id="flowPara3043" font-size="72">y</flowPara></flowRoot><flowRoot font-variant="normal" style="text-align:start;line-height:125%;-inkscape-font-specification:Sans Italic" id="flowRoot3037-6" fill="#000" fill-opacity="1" stroke="none" font-family="CMU Serif" font-size="16" font-stretch="normal" font-style="italic" font-weight="500" letter-spacing="0" text-anchor="start" transform="translate(1077.1563,1172.1788)" word-spacing="0" writing-mode="lr-tb" xml:space="preserve"><flowRegion id="flowRegion3039-6"><rect id="rect3041-3" width="212.701" height="231.741" x="322.839" y="-1100.469"/></flowRegion><flowPara id="flowPara3043-7" font-size="72">x</flowPara></flowRoot></g><g id="layer3"><path id="path3265" fill="none" stroke="#009100" stroke-dasharray="none" stroke-linecap="butt" stroke-linejoin="miter" stroke-miterlimit="4" stroke-opacity="1" stroke-width="4" d="M 1220.2643,-769.95301 C 609.8822,455.15881 11.027323,400.74973 -577.80726,-765.9124 l 0,0"/><path id="path3148" fill="none" stroke="#ba00ff" stroke-dasharray="none" stroke-linecap="butt" stroke-linejoin="miter" stroke-miterlimit="4" stroke-opacity="1" stroke-width="4" d="m -581.25,1027.3622 1800,-1481.25002 0,0 0,3.125 0,0 0,0"/><path id="path3918" fill="#ba00ff" fill-opacity="1" stroke="none" d="m 543.75,-53.887817 a 21.875,21.875 0 1 1 -43.75,0 21.875,21.875 0 1 1 43.75,0 z" transform="translate(190.625,15.625)"/><flowRoot id="flowRoot3920" fill="#000" fill-opacity="1" fill-rule="nonzero" stroke="#6c0094" stroke-opacity="1" stroke-width="1" color="#000" display="inline" enable-background="accumulate" letter-spacing="0" overflow="visible" transform="matrix(0.68912711,0,0,0.68912711,-697.673,653.36155)" visibility="visible" word-spacing="0" xml:space="preserve" style="line-height:125%;marker:none"><flowRegion id="flowRegion3922"><rect id="rect3924" width="1121.875" height="590.625" x="437.5" y="361.737" stroke="#6c0094" stroke-opacity="1"/></flowRegion><flowPara id="flowPara3926" fill="#73009d" fill-opacity="1" stroke="none" font-family="CMU Serif" font-size="144" font-stretch="normal" font-style="normal" font-variant="normal" font-weight="500" style="-inkscape-font-specification:CMU Serif Medium">tangent line</flowPara></flowRoot><flowRoot id="flowRoot3928" fill="#000" fill-opacity="1" fill-rule="nonzero" stroke="none" stroke-linecap="butt" stroke-linejoin="miter" stroke-opacity="1" stroke-width="1" marker-end="none" marker-mid="none" marker-start="none" color="#000" display="inline" enable-background="accumulate" letter-spacing="0" overflow="visible" visibility="visible" word-spacing="0" xml:space="preserve" style="marker:none;line-height:125%"><flowRegion id="flowRegion3930"><rect id="rect3932" width="187.5" height="18.75" x="-240.625" y="-660.138"/></flowRegion><flowPara id="flowPara3934"/></flowRoot></g><g id="g4679" stroke-width="0" transform="matrix(8.3798881,0,0,8.3798881,-472.53775,-720.1098)" ns0:page_width="6in" ns0:text="$f(x)=x^2$"><defs id="defs4681"><g id="g4683"><symbol id="textext-441b582d-0" overflow="visible"><path id="path4686" stroke="none"/></symbol><symbol id="textext-441b582d-1" overflow="visible"><path id="path4689" stroke="none" d="m 3.65625,-3.984375 0.859375,0 c 0.203125,0 0.296875,0 0.296875,-0.203125 0,-0.109375 -0.09375,-0.109375 -0.265625,-0.109375 l -0.828125,0 0.203125,-1.140625 c 0.046875,-0.203125 0.1875,-0.90625 0.25,-1.03125 0.078125,-0.1875 0.25,-0.34375 0.46875,-0.34375 0.03125,0 0.296875,0 0.484375,0.1875 -0.4375,0.03125 -0.546875,0.390625 -0.546875,0.53125 0,0.234375 0.1875,0.359375 0.375,0.359375 C 5.21875,-5.734375 5.5,-5.96875 5.5,-6.34375 c 0,-0.453125 -0.453125,-0.6875 -0.859375,-0.6875 -0.34375,0 -0.96875,0.1875 -1.265625,1.171875 -0.0625,0.203125 -0.09375,0.3125 -0.328125,1.5625 l -0.6875,0 c -0.203125,0 -0.3125,0 -0.3125,0.1875 0,0.125 0.09375,0.125 0.28125,0.125 l 0.65625,0 -0.734375,3.9375 c -0.1875,0.96875 -0.359375,1.875 -0.875,1.875 -0.046875,0 -0.28125,0 -0.484375,-0.1875 C 1.359375,1.609375 1.453125,1.25 1.453125,1.109375 1.453125,0.875 1.265625,0.75 1.078125,0.75 0.8125,0.75 0.53125,0.984375 0.53125,1.359375 c 0,0.4375 0.4375,0.6875 0.84375,0.6875 0.546875,0 0.953125,-0.59375 1.125,-0.96875 0.328125,-0.625 0.546875,-1.828125 0.5625,-1.90625 z"/></symbol><symbol id="textext-441b582d-2" overflow="visible"><path id="path4692" stroke="none" d="M 3.328125,-3.015625 C 3.390625,-3.265625 3.625,-4.1875 4.3125,-4.1875 c 0.046875,0 0.296875,0 0.5,0.125 C 4.53125,-4 4.34375,-3.765625 4.34375,-3.515625 c 0,0.15625 0.109375,0.34375 0.375,0.34375 0.21875,0 0.53125,-0.171875 0.53125,-0.578125 0,-0.515625 -0.578125,-0.65625 -0.921875,-0.65625 -0.578125,0 -0.921875,0.53125 -1.046875,0.75 -0.25,-0.65625 -0.78125,-0.75 -1.078125,-0.75 -1.03125,0 -1.609375,1.28125 -1.609375,1.53125 0,0.109375 0.109375,0.109375 0.125,0.109375 0.078125,0 0.109375,-0.03125 0.125,-0.109375 0.34375,-1.0625 1,-1.3125 1.34375,-1.3125 0.1875,0 0.53125,0.09375 0.53125,0.671875 0,0.3125 -0.171875,0.96875 -0.53125,2.375 -0.15625,0.609375 -0.515625,1.03125 -0.953125,1.03125 -0.0625,0 -0.28125,0 -0.5,-0.125 0.25,-0.0625 0.46875,-0.265625 0.46875,-0.546875 0,-0.265625 -0.21875,-0.34375 -0.359375,-0.34375 -0.3125,0 -0.546875,0.25 -0.546875,0.578125 0,0.453125 0.484375,0.65625 0.921875,0.65625 0.671875,0 1.03125,-0.703125 1.046875,-0.75 0.125,0.359375 0.484375,0.75 1.078125,0.75 1.03125,0 1.59375,-1.28125 1.59375,-1.53125 0,-0.109375 -0.078125,-0.109375 -0.109375,-0.109375 -0.09375,0 -0.109375,0.046875 -0.140625,0.109375 -0.328125,1.078125 -1,1.3125 -1.3125,1.3125 -0.390625,0 -0.546875,-0.3125 -0.546875,-0.65625 0,-0.21875 0.046875,-0.4375 0.15625,-0.875 z"/></symbol><symbol id="textext-441b582d-3" overflow="visible"><path id="path4695" stroke="none"/></symbol><symbol id="textext-441b582d-4" overflow="visible"><path id="path4698" stroke="none" d="m 3.296875,2.390625 c 0,-0.03125 0,-0.046875 -0.171875,-0.21875 C 1.890625,0.921875 1.5625,-0.96875 1.5625,-2.5 c 0,-1.734375 0.375,-3.46875 1.609375,-4.703125 0.125,-0.125 0.125,-0.140625 0.125,-0.171875 0,-0.078125 -0.03125,-0.109375 -0.09375,-0.109375 -0.109375,0 -1,0.6875 -1.59375,1.953125 -0.5,1.09375 -0.625,2.203125 -0.625,3.03125 0,0.78125 0.109375,1.984375 0.65625,3.125 C 2.25,1.84375 3.09375,2.5 3.203125,2.5 c 0.0625,0 0.09375,-0.03125 0.09375,-0.109375 z"/></symbol><symbol id="textext-441b582d-5" overflow="visible"><path id="path4701" stroke="none" d="m 2.875,-2.5 c 0,-0.765625 -0.109375,-1.96875 -0.65625,-3.109375 -0.59375,-1.21875 -1.453125,-1.875 -1.546875,-1.875 -0.0625,0 -0.109375,0.046875 -0.109375,0.109375 0,0.03125 0,0.046875 0.1875,0.234375 0.984375,0.984375 1.546875,2.5625 1.546875,4.640625 0,1.71875 -0.359375,3.46875 -1.59375,4.71875 C 0.5625,2.34375 0.5625,2.359375 0.5625,2.390625 0.5625,2.453125 0.609375,2.5 0.671875,2.5 0.765625,2.5 1.671875,1.8125 2.25,0.546875 2.765625,-0.546875 2.875,-1.65625 2.875,-2.5 z"/></symbol><symbol id="textext-441b582d-6" overflow="visible"><path id="path4704" stroke="none" d="m 6.84375,-3.265625 c 0.15625,0 0.34375,0 0.34375,-0.1875 C 7.1875,-3.65625 7,-3.65625 6.859375,-3.65625 l -5.96875,0 c -0.140625,0 -0.328125,0 -0.328125,0.203125 0,0.1875 0.1875,0.1875 0.328125,0.1875 z m 0.015625,1.9375 c 0.140625,0 0.328125,0 0.328125,-0.203125 0,-0.1875 -0.1875,-0.1875 -0.34375,-0.1875 l -5.953125,0 c -0.140625,0 -0.328125,0 -0.328125,0.1875 0,0.203125 0.1875,0.203125 0.328125,0.203125 z"/></symbol><symbol id="textext-441b582d-7" overflow="visible"><path id="path4707" stroke="none"/></symbol><symbol id="textext-441b582d-8" overflow="visible"><path id="path4710" stroke="none" d="m 3.515625,-1.265625 -0.234375,0 c -0.015625,0.15625 -0.09375,0.5625 -0.1875,0.625 -0.046875,0.046875 -0.578125,0.046875 -0.6875,0.046875 l -1.28125,0 c 0.734375,-0.640625 0.984375,-0.84375 1.390625,-1.171875 0.515625,-0.40625 1,-0.84375 1,-1.5 0,-0.84375 -0.734375,-1.359375 -1.625,-1.359375 -0.859375,0 -1.453125,0.609375 -1.453125,1.25 0,0.34375 0.296875,0.390625 0.375,0.390625 0.15625,0 0.359375,-0.125 0.359375,-0.375 0,-0.125 -0.046875,-0.375 -0.40625,-0.375 C 0.984375,-4.21875 1.453125,-4.375 1.78125,-4.375 c 0.703125,0 1.0625,0.546875 1.0625,1.109375 0,0.609375 -0.4375,1.078125 -0.65625,1.328125 L 0.515625,-0.265625 C 0.4375,-0.203125 0.4375,-0.1875 0.4375,0 l 2.875,0 z"/></symbol></g></defs><g id="textext-441b582d-9"><g id="g4713" fill="#000" fill-opacity="1"><use id="use4715" width="744.094" height="1052.362" x="0" y="9.963" xlink:href="#textext-441b582d-1"/></g><g id="g4717" fill="#000" fill-opacity="1"><use id="use4719" width="744.094" height="1052.362" x="5.95" y="9.963" xlink:href="#textext-441b582d-4"/></g><g id="g4721" fill="#000" fill-opacity="1"><use id="use4723" width="744.094" height="1052.362" x="9.824" y="9.963" xlink:href="#textext-441b582d-2"/></g><g id="g4725" fill="#000" fill-opacity="1"><use id="use4727" width="744.094" height="1052.362" x="15.518" y="9.963" xlink:href="#textext-441b582d-5"/></g><g id="g4729" fill="#000" fill-opacity="1"><use id="use4731" width="744.094" height="1052.362" x="22.162" y="9.963" xlink:href="#textext-441b582d-6"/></g><g id="g4733" fill="#000" fill-opacity="1"><use id="use4735" width="744.094" height="1052.362" x="32.676" y="9.963" xlink:href="#textext-441b582d-2"/></g><g id="g4737" fill="#000" fill-opacity="1"><use id="use4739" width="744.094" height="1052.362" x="38.37" y="6.348" xlink:href="#textext-441b582d-8"/></g></g></g></svg>