<svg xmlns="http://www.w3.org/2000/svg" xmlns:ns0="http://www.iki.fi/pav/software/textext/" xmlns:svg="http://www.w3.org/2000/svg" xmlns:xlink="http://www.w3.org/1999/xlink" id="svg4543" width="744.094" height="1052.362" version="1.1"><metadata id="metadata4548"/><g id="layer2" display="none"><g id="g10529" stroke="#2d2d2d" stroke-dasharray="none" stroke-miterlimit="4" stroke-width="3.611" opacity=".3" transform="matrix(1.0385329,0,0,1.0385329,-715.2499,-905.91818)"><g id="g10531" stroke="#2d2d2d" stroke-dasharray="none" stroke-miterlimit="4" stroke-width="3.611"><path id="path10533" fill="none" stroke="#2d2d2d" stroke-dasharray="none" stroke-miterlimit="4" stroke-width="3.611" d="m 100,0 0,2000"/><path id="path10535" fill="none" stroke="#2d2d2d" stroke-dasharray="none" stroke-miterlimit="4" stroke-width="3.611" d="m 200,0 0,2000"/><path id="path10537" fill="none" stroke="#2d2d2d" stroke-dasharray="none" stroke-miterlimit="4" stroke-width="3.611" d="m 300,0 0,2000"/><path id="path10539" fill="none" stroke="#2d2d2d" stroke-dasharray="none" stroke-miterlimit="4" stroke-width="3.611" d="m 400,0 0,2000"/><path id="path10541" fill="none" stroke="#2d2d2d" stroke-dasharray="none" stroke-miterlimit="4" stroke-width="3.611" d="m 500,0 0,2000"/><path id="path10543" fill="none" stroke="#2d2d2d" stroke-dasharray="none" stroke-miterlimit="4" stroke-width="3.611" d="m 600,0 0,2000"/><path id="path10545" fill="none" stroke="#2d2d2d" stroke-dasharray="none" stroke-miterlimit="4" stroke-width="3.611" d="m 700,0 0,2000"/><path id="path10547" fill="none" stroke="#2d2d2d" stroke-dasharray="none" stroke-miterlimit="4" stroke-width="3.611" d="m 800,0 0,2000"/><path id="path10549" fill="none" stroke="#2d2d2d" stroke-dasharray="none" stroke-miterlimit="4" stroke-width="3.611" d="m 900,0 0,2000"/><path id="path10551" fill="none" stroke="#2d2d2d" stroke-dasharray="none" stroke-miterlimit="4" stroke-width="3.611" d="m 1000,0 0,2000"/><path id="path10553" fill="none" stroke="#2d2d2d" stroke-dasharray="none" stroke-miterlimit="4" stroke-width="3.611" d="m 1100,0 0,2000"/><path id="path10555" fill="none" stroke="#2d2d2d" stroke-dasharray="none" stroke-miterlimit="4" stroke-width="3.611" d="m 1200,0 0,2000"/><path id="path10557" fill="none" stroke="#2d2d2d" stroke-dasharray="none" stroke-miterlimit="4" stroke-width="3.611" d="m 1300,0 0,2000"/><path id="path10559" fill="none" stroke="#2d2d2d" stroke-dasharray="none" stroke-miterlimit="4" stroke-width="3.611" d="m 1400,0 0,2000"/><path id="path10561" fill="none" stroke="#2d2d2d" stroke-dasharray="none" stroke-miterlimit="4" stroke-width="3.611" d="m 1500,0 0,2000"/><path id="path10563" fill="none" stroke="#2d2d2d" stroke-dasharray="none" stroke-miterlimit="4" stroke-width="3.611" d="m 1600,0 0,2000"/><path id="path10565" fill="none" stroke="#2d2d2d" stroke-dasharray="none" stroke-miterlimit="4" stroke-width="3.611" d="m 1700,0 0,2000"/><path id="path10567" fill="none" stroke="#2d2d2d" stroke-dasharray="none" stroke-miterlimit="4" stroke-width="3.611" d="m 1800,0 0,2000"/><path id="path10569" fill="none" stroke="#2d2d2d" stroke-dasharray="none" stroke-miterlimit="4" stroke-width="3.611" d="m 1900,0 0,2000"/></g><g id="g10571" stroke="#2d2d2d" stroke-dasharray="none" stroke-miterlimit="4" stroke-width="3.611"><path id="path10573" fill="none" stroke="#2d2d2d" stroke-dasharray="none" stroke-miterlimit="4" stroke-width="3.611" d="m 0,100 2000,0"/><path id="path10575" fill="none" stroke="#2d2d2d" stroke-dasharray="none" stroke-miterlimit="4" stroke-width="3.611" d="m 0,200 2000,0"/><path id="path10577" fill="none" stroke="#2d2d2d" stroke-dasharray="none" stroke-miterlimit="4" stroke-width="3.611" d="m 0,300 2000,0"/><path id="path10579" fill="none" stroke="#2d2d2d" stroke-dasharray="none" stroke-miterlimit="4" stroke-width="3.611" d="m 0,400 2000,0"/><path id="path10581" fill="none" stroke="#2d2d2d" stroke-dasharray="none" stroke-miterlimit="4" stroke-width="3.611" d="m 0,500 2000,0"/><path id="path10583" fill="none" stroke="#2d2d2d" stroke-dasharray="none" stroke-miterlimit="4" stroke-width="3.611" d="m 0,600 2000,0"/><path id="path10585" fill="none" stroke="#2d2d2d" stroke-dasharray="none" stroke-miterlimit="4" stroke-width="3.611" d="m 0,700 2000,0"/><path id="path10587" fill="none" stroke="#2d2d2d" stroke-dasharray="none" stroke-miterlimit="4" stroke-width="3.611" d="m 0,800 2000,0"/><path id="path10589" fill="none" stroke="#2d2d2d" stroke-dasharray="none" stroke-miterlimit="4" stroke-width="3.611" d="m 0,900 2000,0"/><path id="path10591" fill="none" stroke="#2d2d2d" stroke-dasharray="none" stroke-miterlimit="4" stroke-width="3.611" d="m 0,1000 2000,0"/><path id="path10593" fill="none" stroke="#2d2d2d" stroke-dasharray="none" stroke-miterlimit="4" stroke-width="3.611" d="m 0,1100 2000,0"/><path id="path10595" fill="none" stroke="#2d2d2d" stroke-dasharray="none" stroke-miterlimit="4" stroke-width="3.611" d="m 0,1200 2000,0"/><path id="path10597" fill="none" stroke="#2d2d2d" stroke-dasharray="none" stroke-miterlimit="4" stroke-width="3.611" d="m 0,1300 2000,0"/><path id="path10599" fill="none" stroke="#2d2d2d" stroke-dasharray="none" stroke-miterlimit="4" stroke-width="3.611" d="m 0,1400 2000,0"/><path id="path10601" fill="none" stroke="#2d2d2d" stroke-dasharray="none" stroke-miterlimit="4" stroke-width="3.611" d="m 0,1500 2000,0"/><path id="path10603" fill="none" stroke="#2d2d2d" stroke-dasharray="none" stroke-miterlimit="4" stroke-width="3.611" d="m 0,1600 2000,0"/><path id="path10605" fill="none" stroke="#2d2d2d" stroke-dasharray="none" stroke-miterlimit="4" stroke-width="3.611" d="m 0,1700 2000,0"/><path id="path10607" fill="none" stroke="#2d2d2d" stroke-dasharray="none" stroke-miterlimit="4" stroke-width="3.611" d="m 0,1800 2000,0"/><path id="path10609" fill="none" stroke="#2d2d2d" stroke-dasharray="none" stroke-miterlimit="4" stroke-width="3.611" d="m 0,1900 2000,0"/></g><rect id="rect10611" width="2000" height="2000" x="0" y="0" fill="none" stroke="#2d2d2d" stroke-dasharray="none" stroke-miterlimit="4" stroke-width="3.611"/></g></g><g id="layer1" display="inline"><path id="path4570" fill="none" stroke="#2d2d2d" stroke-dasharray="none" stroke-linecap="butt" stroke-linejoin="miter" stroke-miterlimit="4" stroke-opacity="1" stroke-width="12.5" d="m -717.14286,1064.8593 c -693.25364,0 2774.13496,0 2080.88136,0"/><path id="path4570-3" fill="none" stroke="#2d2d2d" stroke-dasharray="none" stroke-linecap="butt" stroke-linejoin="miter" stroke-miterlimit="4" stroke-opacity="1" stroke-width="12.5" d="m -611.69946,1172.7877 c 0,694.2428 0,-2774.8107 0,-2080.56799"/><flowRoot font-variant="normal" style="text-align:start;line-height:125%;-inkscape-font-specification:Sans Italic" id="flowRoot3037" fill="#000" fill-opacity="1" stroke="none" font-family="CMU Serif" font-size="16" font-stretch="normal" font-style="italic" font-weight="500" letter-spacing="0" text-anchor="start" transform="matrix(1.6037978,0,0,1.6037978,-1160.398,706.68624)" word-spacing="0" writing-mode="lr-tb" xml:space="preserve"><flowRegion id="flowRegion3039"><rect id="rect3041" width="212.701" height="231.741" x="322.839" y="-1100.469"/></flowRegion><flowPara id="flowPara3043" font-size="72">y</flowPara></flowRoot><flowRoot font-variant="normal" style="text-align:start;line-height:125%;-inkscape-font-specification:Sans Italic" id="flowRoot3037-6" fill="#000" fill-opacity="1" stroke="none" font-family="CMU Serif" font-size="16" font-stretch="normal" font-style="italic" font-weight="500" letter-spacing="0" text-anchor="start" transform="matrix(1.4934289,0,0,1.4934289,910.87161,2636.077)" word-spacing="0" writing-mode="lr-tb" xml:space="preserve"><flowRegion id="flowRegion3039-6"><rect id="rect3041-3" width="212.701" height="231.741" x="322.839" y="-1100.469"/></flowRegion><flowPara id="flowPara3043-7" font-size="72">x</flowPara></flowRoot></g><g id="layer4"><rect id="rect4446-7-9" width="500.458" height="1150.765" x="-606.627" y="-89.376" fill="#d76cff" fill-opacity="1" stroke="#000" stroke-dasharray="none" stroke-miterlimit="4" stroke-opacity="1" stroke-width="2.558" opacity=".5"/><rect id="rect4446-7-9-1" width="500.717" height="929.149" x="-103.741" y="132.369" fill="#d76cff" fill-opacity="1" stroke="#000" stroke-dasharray="none" stroke-miterlimit="4" stroke-opacity="1" stroke-width="2.299" opacity=".5"/><rect id="rect4446-7-9-8" width="500.458" height="1150.765" x="399.404" y="-89.376" fill="#d76cff" fill-opacity="1" stroke="#000" stroke-dasharray="none" stroke-miterlimit="4" stroke-opacity="1" stroke-width="2.558" opacity=".5"/><rect id="rect4446-7-9-9" width="456.731" height="1238.288" x="902.885" y="-179.282" fill="#d76cff" fill-opacity="1" stroke="#000" stroke-dasharray="none" stroke-miterlimit="4" stroke-opacity="1" stroke-width="2.535" opacity=".5"/></g><g id="layer5"><path id="path4835" fill="none" stroke="#000" stroke-dasharray="none" stroke-linecap="butt" stroke-linejoin="miter" stroke-miterlimit="4" stroke-opacity="1" stroke-width="3" d="m 398.01238,1090.1532 c 0,0 -3.79311,69.1963 151.5625,21.875 71.09642,-21.656 94.53125,34.375 94.53125,34.375 0,0 25,-44.5312 101.5625,-35.1562 111.70904,13.6787 150,8.5937 153.125,-28.9063"/><g id="g5127" stroke-width="0" transform="matrix(13.471376,0,0,13.471376,575.32592,1158.1465)" ns0:page_width="816" ns0:text="$\\Delta x$"><defs id="defs5129"><g id="g5131"><symbol id="textext-185a3f86-0" overflow="visible"><path id="path5134" stroke="none"/></symbol><symbol id="textext-185a3f86-1" overflow="visible"><path id="path5137" stroke="none" d="m 4.40625,-6.953125 c -0.0625,-0.140625 -0.09375,-0.1875 -0.265625,-0.1875 -0.15625,0 -0.1875,0.046875 -0.25,0.1875 l -3.375,6.75 C 0.46875,-0.109375 0.46875,-0.09375 0.46875,-0.078125 0.46875,0 0.53125,0 0.6875,0 l 6.921875,0 c 0.15625,0 0.21875,0 0.21875,-0.078125 0,-0.015625 0,-0.03125 -0.046875,-0.125 z m -0.578125,0.8125 2.6875,5.390625 -5.375,0 z"/></symbol><symbol id="textext-185a3f86-2" overflow="visible"><path id="path5140" stroke="none"/></symbol><symbol id="textext-185a3f86-3" overflow="visible"><path id="path5143" stroke="none" d="M 3.328125,-3.015625 C 3.390625,-3.265625 3.625,-4.1875 4.3125,-4.1875 c 0.046875,0 0.296875,0 0.5,0.125 C 4.53125,-4 4.34375,-3.765625 4.34375,-3.515625 c 0,0.15625 0.109375,0.34375 0.375,0.34375 0.21875,0 0.53125,-0.171875 0.53125,-0.578125 0,-0.515625 -0.578125,-0.65625 -0.921875,-0.65625 -0.578125,0 -0.921875,0.53125 -1.046875,0.75 -0.25,-0.65625 -0.78125,-0.75 -1.078125,-0.75 -1.03125,0 -1.609375,1.28125 -1.609375,1.53125 0,0.109375 0.109375,0.109375 0.125,0.109375 0.078125,0 0.109375,-0.03125 0.125,-0.109375 0.34375,-1.0625 1,-1.3125 1.34375,-1.3125 0.1875,0 0.53125,0.09375 0.53125,0.671875 0,0.3125 -0.171875,0.96875 -0.53125,2.375 -0.15625,0.609375 -0.515625,1.03125 -0.953125,1.03125 -0.0625,0 -0.28125,0 -0.5,-0.125 0.25,-0.0625 0.46875,-0.265625 0.46875,-0.546875 0,-0.265625 -0.21875,-0.34375 -0.359375,-0.34375 -0.3125,0 -0.546875,0.25 -0.546875,0.578125 0,0.453125 0.484375,0.65625 0.921875,0.65625 0.671875,0 1.03125,-0.703125 1.046875,-0.75 0.125,0.359375 0.484375,0.75 1.078125,0.75 1.03125,0 1.59375,-1.28125 1.59375,-1.53125 0,-0.109375 -0.078125,-0.109375 -0.109375,-0.109375 -0.09375,0 -0.109375,0.046875 -0.140625,0.109375 -0.328125,1.078125 -1,1.3125 -1.3125,1.3125 -0.390625,0 -0.546875,-0.3125 -0.546875,-0.65625 0,-0.21875 0.046875,-0.4375 0.15625,-0.875 z"/></symbol></g></defs><g id="textext-185a3f86-4"><g id="g5146" fill="#000" fill-opacity="1"><use id="use5148" width="744.094" height="1052.362" x="0" y="9.963" xlink:href="#textext-185a3f86-1"/></g><g id="g5150" fill="#000" fill-opacity="1"><use id="use5152" width="744.094" height="1052.362" x="8.302" y="9.963" xlink:href="#textext-185a3f86-3"/></g></g></g></g><g id="layer3" display="inline"><g id="g4136" fill="#005c94" stroke="#0084c8" stroke-width="0" display="inline" transform="matrix(13.137715,0,0,13.137715,520.5277,-273.48692)" ns0:page_width="816" ns0:text="$f(x)$"><defs id="defs4138"><g id="g4140"><symbol id="textext-cd6cbad0-0" overflow="visible"><path id="path4143" stroke="none"/></symbol><symbol id="textext-cd6cbad0-1" overflow="visible"><path id="path4146" stroke="none" d="m 3.65625,-3.984375 0.859375,0 c 0.203125,0 0.296875,0 0.296875,-0.203125 0,-0.109375 -0.09375,-0.109375 -0.265625,-0.109375 l -0.828125,0 0.203125,-1.140625 c 0.046875,-0.203125 0.1875,-0.90625 0.25,-1.03125 0.078125,-0.1875 0.25,-0.34375 0.46875,-0.34375 0.03125,0 0.296875,0 0.484375,0.1875 -0.4375,0.03125 -0.546875,0.390625 -0.546875,0.53125 0,0.234375 0.1875,0.359375 0.375,0.359375 C 5.21875,-5.734375 5.5,-5.96875 5.5,-6.34375 c 0,-0.453125 -0.453125,-0.6875 -0.859375,-0.6875 -0.34375,0 -0.96875,0.1875 -1.265625,1.171875 -0.0625,0.203125 -0.09375,0.3125 -0.328125,1.5625 l -0.6875,0 c -0.203125,0 -0.3125,0 -0.3125,0.1875 0,0.125 0.09375,0.125 0.28125,0.125 l 0.65625,0 -0.734375,3.9375 c -0.1875,0.96875 -0.359375,1.875 -0.875,1.875 -0.046875,0 -0.28125,0 -0.484375,-0.1875 C 1.359375,1.609375 1.453125,1.25 1.453125,1.109375 1.453125,0.875 1.265625,0.75 1.078125,0.75 0.8125,0.75 0.53125,0.984375 0.53125,1.359375 c 0,0.4375 0.4375,0.6875 0.84375,0.6875 0.546875,0 0.953125,-0.59375 1.125,-0.96875 0.328125,-0.625 0.546875,-1.828125 0.5625,-1.90625 z"/></symbol><symbol id="textext-cd6cbad0-2" overflow="visible"><path id="path4149" stroke="none" d="M 3.328125,-3.015625 C 3.390625,-3.265625 3.625,-4.1875 4.3125,-4.1875 c 0.046875,0 0.296875,0 0.5,0.125 C 4.53125,-4 4.34375,-3.765625 4.34375,-3.515625 c 0,0.15625 0.109375,0.34375 0.375,0.34375 0.21875,0 0.53125,-0.171875 0.53125,-0.578125 0,-0.515625 -0.578125,-0.65625 -0.921875,-0.65625 -0.578125,0 -0.921875,0.53125 -1.046875,0.75 -0.25,-0.65625 -0.78125,-0.75 -1.078125,-0.75 -1.03125,0 -1.609375,1.28125 -1.609375,1.53125 0,0.109375 0.109375,0.109375 0.125,0.109375 0.078125,0 0.109375,-0.03125 0.125,-0.109375 0.34375,-1.0625 1,-1.3125 1.34375,-1.3125 0.1875,0 0.53125,0.09375 0.53125,0.671875 0,0.3125 -0.171875,0.96875 -0.53125,2.375 -0.15625,0.609375 -0.515625,1.03125 -0.953125,1.03125 -0.0625,0 -0.28125,0 -0.5,-0.125 0.25,-0.0625 0.46875,-0.265625 0.46875,-0.546875 0,-0.265625 -0.21875,-0.34375 -0.359375,-0.34375 -0.3125,0 -0.546875,0.25 -0.546875,0.578125 0,0.453125 0.484375,0.65625 0.921875,0.65625 0.671875,0 1.03125,-0.703125 1.046875,-0.75 0.125,0.359375 0.484375,0.75 1.078125,0.75 1.03125,0 1.59375,-1.28125 1.59375,-1.53125 0,-0.109375 -0.078125,-0.109375 -0.109375,-0.109375 -0.09375,0 -0.109375,0.046875 -0.140625,0.109375 -0.328125,1.078125 -1,1.3125 -1.3125,1.3125 -0.390625,0 -0.546875,-0.3125 -0.546875,-0.65625 0,-0.21875 0.046875,-0.4375 0.15625,-0.875 z"/></symbol><symbol id="textext-cd6cbad0-3" overflow="visible"><path id="path4152" stroke="none"/></symbol><symbol id="textext-cd6cbad0-4" overflow="visible"><path id="path4155" stroke="none" d="m 3.296875,2.390625 c 0,-0.03125 0,-0.046875 -0.171875,-0.21875 C 1.890625,0.921875 1.5625,-0.96875 1.5625,-2.5 c 0,-1.734375 0.375,-3.46875 1.609375,-4.703125 0.125,-0.125 0.125,-0.140625 0.125,-0.171875 0,-0.078125 -0.03125,-0.109375 -0.09375,-0.109375 -0.109375,0 -1,0.6875 -1.59375,1.953125 -0.5,1.09375 -0.625,2.203125 -0.625,3.03125 0,0.78125 0.109375,1.984375 0.65625,3.125 C 2.25,1.84375 3.09375,2.5 3.203125,2.5 c 0.0625,0 0.09375,-0.03125 0.09375,-0.109375 z"/></symbol><symbol id="textext-cd6cbad0-5" overflow="visible"><path id="path4158" stroke="none" d="m 2.875,-2.5 c 0,-0.765625 -0.109375,-1.96875 -0.65625,-3.109375 -0.59375,-1.21875 -1.453125,-1.875 -1.546875,-1.875 -0.0625,0 -0.109375,0.046875 -0.109375,0.109375 0,0.03125 0,0.046875 0.1875,0.234375 0.984375,0.984375 1.546875,2.5625 1.546875,4.640625 0,1.71875 -0.359375,3.46875 -1.59375,4.71875 C 0.5625,2.34375 0.5625,2.359375 0.5625,2.390625 0.5625,2.453125 0.609375,2.5 0.671875,2.5 0.765625,2.5 1.671875,1.8125 2.25,0.546875 2.765625,-0.546875 2.875,-1.65625 2.875,-2.5 z"/></symbol></g></defs><g id="textext-cd6cbad0-6" fill="#005c94" stroke="#0084c8"><g id="g4161" fill="#005c94" fill-opacity="1" stroke="#0084c8"><use id="use4163" width="744.094" height="1052.362" x="0" y="9.963" fill="#005c94" stroke="#0084c8" xlink:href="#textext-cd6cbad0-1"/></g><g id="g4165" fill="#005c94" fill-opacity="1" stroke="#0084c8"><use id="use4167" width="744.094" height="1052.362" x="5.95" y="9.963" fill="#005c94" stroke="#0084c8" xlink:href="#textext-cd6cbad0-4"/></g><g id="g4169" fill="#005c94" fill-opacity="1" stroke="#0084c8"><use id="use4171" width="744.094" height="1052.362" x="9.824" y="9.963" fill="#005c94" stroke="#0084c8" xlink:href="#textext-cd6cbad0-2"/></g><g id="g4173" fill="#005c94" fill-opacity="1" stroke="#0084c8"><use id="use4175" width="744.094" height="1052.362" x="15.518" y="9.963" fill="#005c94" stroke="#0084c8" xlink:href="#textext-cd6cbad0-5"/></g></g></g><path id="path3306" fill="none" stroke="#0084c8" stroke-dasharray="none" stroke-linecap="butt" stroke-linejoin="miter" stroke-miterlimit="4" stroke-opacity="1" stroke-width="5" d="m -606.25,86.737133 c 0,0 225,-240.624993 471.875,-159.375 C 112.5,8.6121326 300,174.23712 515.625,124.23712 c 215.625,-49.999987 461.7188,-327.34373 668.75,-306.24998 164.1549,16.72522 150,75 178.125,99.999993" display="inline"/></g></svg>