<svg xmlns="http://www.w3.org/2000/svg" xmlns:ns0="http://www.iki.fi/pav/software/textext/" xmlns:svg="http://www.w3.org/2000/svg" xmlns:xlink="http://www.w3.org/1999/xlink" id="svg3225" width="744.094" height="1052.362" version="1.1"><metadata id="metadata3230"/><g id="layer1"><path id="path3233" fill="none" stroke="#000" stroke-linecap="butt" stroke-linejoin="miter" stroke-opacity="1" stroke-width="1" d="m 200.18045,515.33963 283.90978,-191.5188 0,191.5188 z"/><g id="g5007" transform="translate(-18.782524,6.6291261)"><g id="g3556" stroke-width="0" transform="matrix(2.5,0,0,2.5,509.375,400)" ns0:page_width="6in" ns0:text="$\\sqrt{x^2-2^2}$"><defs id="defs3558"><g id="g3560"><symbol id="textext-6d8a7f5b-0" overflow="visible"><path id="path3563" stroke="none"/></symbol><symbol id="textext-6d8a7f5b-1" overflow="visible"><path id="path3566" stroke="none" d="m 3.875,8.515625 -1.75,-3.875 C 2.046875,4.484375 2,4.484375 1.96875,4.484375 c 0,0 -0.0625,0 -0.171875,0.078125 l -0.9375,0.71875 c -0.125,0.109375 -0.125,0.125 -0.125,0.15625 0,0.0625 0.015625,0.109375 0.09375,0.109375 0.0625,0 0.234375,-0.140625 0.34375,-0.21875 C 1.21875,5.28125 1.375,5.171875 1.484375,5.09375 l 1.96875,4.3125 C 3.515625,9.5625 3.5625,9.5625 3.65625,9.5625 c 0.15625,0 0.1875,-0.046875 0.25,-0.1875 L 8.4375,0 C 8.5,-0.140625 8.5,-0.171875 8.5,-0.203125 8.5,-0.296875 8.421875,-0.40625 8.296875,-0.40625 c -0.078125,0 -0.140625,0.0625 -0.21875,0.21875 z"/></symbol><symbol id="textext-6d8a7f5b-2" overflow="visible"><path id="path3569" stroke="none" d="m 6.5625,-2.296875 c 0.171875,0 0.359375,0 0.359375,-0.203125 0,-0.1875 -0.1875,-0.1875 -0.359375,-0.1875 l -5.390625,0 c -0.171875,0 -0.34375,0 -0.34375,0.1875 0,0.203125 0.171875,0.203125 0.34375,0.203125 z"/></symbol><symbol id="textext-6d8a7f5b-3" overflow="visible"><path id="path3572" stroke="none"/></symbol><symbol id="textext-6d8a7f5b-4" overflow="visible"><path id="path3575" stroke="none" d="M 3.328125,-3.015625 C 3.390625,-3.265625 3.625,-4.1875 4.3125,-4.1875 c 0.046875,0 0.296875,0 0.5,0.125 C 4.53125,-4 4.34375,-3.765625 4.34375,-3.515625 c 0,0.15625 0.109375,0.34375 0.375,0.34375 0.21875,0 0.53125,-0.171875 0.53125,-0.578125 0,-0.515625 -0.578125,-0.65625 -0.921875,-0.65625 -0.578125,0 -0.921875,0.53125 -1.046875,0.75 -0.25,-0.65625 -0.78125,-0.75 -1.078125,-0.75 -1.03125,0 -1.609375,1.28125 -1.609375,1.53125 0,0.109375 0.109375,0.109375 0.125,0.109375 0.078125,0 0.109375,-0.03125 0.125,-0.109375 0.34375,-1.0625 1,-1.3125 1.34375,-1.3125 0.1875,0 0.53125,0.09375 0.53125,0.671875 0,0.3125 -0.171875,0.96875 -0.53125,2.375 -0.15625,0.609375 -0.515625,1.03125 -0.953125,1.03125 -0.0625,0 -0.28125,0 -0.5,-0.125 0.25,-0.0625 0.46875,-0.265625 0.46875,-0.546875 0,-0.265625 -0.21875,-0.34375 -0.359375,-0.34375 -0.3125,0 -0.546875,0.25 -0.546875,0.578125 0,0.453125 0.484375,0.65625 0.921875,0.65625 0.671875,0 1.03125,-0.703125 1.046875,-0.75 0.125,0.359375 0.484375,0.75 1.078125,0.75 1.03125,0 1.59375,-1.28125 1.59375,-1.53125 0,-0.109375 -0.078125,-0.109375 -0.109375,-0.109375 -0.09375,0 -0.109375,0.046875 -0.140625,0.109375 -0.328125,1.078125 -1,1.3125 -1.3125,1.3125 -0.390625,0 -0.546875,-0.3125 -0.546875,-0.65625 0,-0.21875 0.046875,-0.4375 0.15625,-0.875 z"/></symbol><symbol id="textext-6d8a7f5b-5" overflow="visible"><path id="path3578" stroke="none"/></symbol><symbol id="textext-6d8a7f5b-6" overflow="visible"><path id="path3581" stroke="none" d="m 3.515625,-1.265625 -0.234375,0 c -0.015625,0.15625 -0.09375,0.5625 -0.1875,0.625 -0.046875,0.046875 -0.578125,0.046875 -0.6875,0.046875 l -1.28125,0 c 0.734375,-0.640625 0.984375,-0.84375 1.390625,-1.171875 0.515625,-0.40625 1,-0.84375 1,-1.5 0,-0.84375 -0.734375,-1.359375 -1.625,-1.359375 -0.859375,0 -1.453125,0.609375 -1.453125,1.25 0,0.34375 0.296875,0.390625 0.375,0.390625 0.15625,0 0.359375,-0.125 0.359375,-0.375 0,-0.125 -0.046875,-0.375 -0.40625,-0.375 C 0.984375,-4.21875 1.453125,-4.375 1.78125,-4.375 c 0.703125,0 1.0625,0.546875 1.0625,1.109375 0,0.609375 -0.4375,1.078125 -0.65625,1.328125 L 0.515625,-0.265625 C 0.4375,-0.203125 0.4375,-0.1875 0.4375,0 l 2.875,0 z"/></symbol><symbol id="textext-6d8a7f5b-7" overflow="visible"><path id="path3584" stroke="none"/></symbol><symbol id="textext-6d8a7f5b-8" overflow="visible"><path id="path3587" stroke="none" d="m 1.265625,-0.765625 1.0625,-1.03125 c 1.546875,-1.375 2.140625,-1.90625 2.140625,-2.90625 0,-1.140625 -0.890625,-1.9375 -2.109375,-1.9375 -1.125,0 -1.859375,0.921875 -1.859375,1.8125 0,0.546875 0.5,0.546875 0.53125,0.546875 0.171875,0 0.515625,-0.109375 0.515625,-0.53125 0,-0.25 -0.1875,-0.515625 -0.53125,-0.515625 -0.078125,0 -0.09375,0 -0.125,0.015625 0.21875,-0.65625 0.765625,-1.015625 1.34375,-1.015625 0.90625,0 1.328125,0.8125 1.328125,1.625 C 3.5625,-3.90625 3.078125,-3.125 2.515625,-2.5 l -1.90625,2.125 C 0.5,-0.265625 0.5,-0.234375 0.5,0 l 3.703125,0 0.265625,-1.734375 -0.234375,0 C 4.171875,-1.4375 4.109375,-1 4,-0.84375 3.9375,-0.765625 3.28125,-0.765625 3.0625,-0.765625 z"/></symbol></g></defs><g id="textext-6d8a7f5b-9"><g id="g3590" fill="#000" fill-opacity="1"><use id="use3592" width="744.094" height="1052.362" x="0" y="1.661" xlink:href="#textext-6d8a7f5b-1"/></g><path id="path3594" fill="none" stroke="#000" stroke-linecap="butt" stroke-linejoin="miter" stroke-miterlimit="10" stroke-opacity="1" stroke-width="1" d="m 0.198,-0.038 32,0" transform="matrix(1,0,0,-1,8.302,1.462)"/><g id="g3596" fill="#000" fill-opacity="1"><use id="use3598" width="744.094" height="1052.362" x="8.302" y="9.963" xlink:href="#textext-6d8a7f5b-4"/></g><g id="g3600" fill="#000" fill-opacity="1"><use id="use3602" width="744.094" height="1052.362" x="13.996" y="7.085" xlink:href="#textext-6d8a7f5b-6"/></g><g id="g3604" fill="#000" fill-opacity="1"><use id="use3606" width="744.094" height="1052.362" x="20.679" y="9.963" xlink:href="#textext-6d8a7f5b-2"/></g><g id="g3608" fill="#000" fill-opacity="1"><use id="use3610" width="744.094" height="1052.362" x="30.642" y="9.963" xlink:href="#textext-6d8a7f5b-8"/></g><g id="g3612" fill="#000" fill-opacity="1"><use id="use3614" width="744.094" height="1052.362" x="35.623" y="7.085" xlink:href="#textext-6d8a7f5b-6"/></g></g></g></g><g id="g3707" stroke-width="0" transform="matrix(2.5,0,0,2.5,333.58701,375.83677)" ns0:page_width="6in" ns0:text="$x$"><defs id="defs3709"><g id="g3711"><symbol id="textext-6030bd62-0" overflow="visible"><path id="path3714" stroke="none"/></symbol><symbol id="textext-6030bd62-1" overflow="visible"><path id="path3717" stroke="none" d="M 3.328125,-3.015625 C 3.390625,-3.265625 3.625,-4.1875 4.3125,-4.1875 c 0.046875,0 0.296875,0 0.5,0.125 C 4.53125,-4 4.34375,-3.765625 4.34375,-3.515625 c 0,0.15625 0.109375,0.34375 0.375,0.34375 0.21875,0 0.53125,-0.171875 0.53125,-0.578125 0,-0.515625 -0.578125,-0.65625 -0.921875,-0.65625 -0.578125,0 -0.921875,0.53125 -1.046875,0.75 -0.25,-0.65625 -0.78125,-0.75 -1.078125,-0.75 -1.03125,0 -1.609375,1.28125 -1.609375,1.53125 0,0.109375 0.109375,0.109375 0.125,0.109375 0.078125,0 0.109375,-0.03125 0.125,-0.109375 0.34375,-1.0625 1,-1.3125 1.34375,-1.3125 0.1875,0 0.53125,0.09375 0.53125,0.671875 0,0.3125 -0.171875,0.96875 -0.53125,2.375 -0.15625,0.609375 -0.515625,1.03125 -0.953125,1.03125 -0.0625,0 -0.28125,0 -0.5,-0.125 0.25,-0.0625 0.46875,-0.265625 0.46875,-0.546875 0,-0.265625 -0.21875,-0.34375 -0.359375,-0.34375 -0.3125,0 -0.546875,0.25 -0.546875,0.578125 0,0.453125 0.484375,0.65625 0.921875,0.65625 0.671875,0 1.03125,-0.703125 1.046875,-0.75 0.125,0.359375 0.484375,0.75 1.078125,0.75 1.03125,0 1.59375,-1.28125 1.59375,-1.53125 0,-0.109375 -0.078125,-0.109375 -0.109375,-0.109375 -0.09375,0 -0.109375,0.046875 -0.140625,0.109375 -0.328125,1.078125 -1,1.3125 -1.3125,1.3125 -0.390625,0 -0.546875,-0.3125 -0.546875,-0.65625 0,-0.21875 0.046875,-0.4375 0.15625,-0.875 z"/></symbol></g></defs><g id="textext-6030bd62-2"><g id="g3720" fill="#000" fill-opacity="1"><use id="use3722" width="744.094" height="1052.362" x="0" y="9.963" xlink:href="#textext-6030bd62-1"/></g></g></g><g id="g3824" stroke-width="0" transform="matrix(2.5,0,0,2.5,351.29442,516.42925)" ns0:page_width="6in" ns0:text="$2$"><defs id="defs3826"><g id="g3828"><symbol id="textext-0b040ec1-0" overflow="visible"><path id="path3831" stroke="none"/></symbol><symbol id="textext-0b040ec1-1" overflow="visible"><path id="path3834" stroke="none" d="m 1.265625,-0.765625 1.0625,-1.03125 c 1.546875,-1.375 2.140625,-1.90625 2.140625,-2.90625 0,-1.140625 -0.890625,-1.9375 -2.109375,-1.9375 -1.125,0 -1.859375,0.921875 -1.859375,1.8125 0,0.546875 0.5,0.546875 0.53125,0.546875 0.171875,0 0.515625,-0.109375 0.515625,-0.53125 0,-0.25 -0.1875,-0.515625 -0.53125,-0.515625 -0.078125,0 -0.09375,0 -0.125,0.015625 0.21875,-0.65625 0.765625,-1.015625 1.34375,-1.015625 0.90625,0 1.328125,0.8125 1.328125,1.625 C 3.5625,-3.90625 3.078125,-3.125 2.515625,-2.5 l -1.90625,2.125 C 0.5,-0.265625 0.5,-0.234375 0.5,0 l 3.703125,0 0.265625,-1.734375 -0.234375,0 C 4.171875,-1.4375 4.109375,-1 4,-0.84375 3.9375,-0.765625 3.28125,-0.765625 3.0625,-0.765625 z"/></symbol></g></defs><g id="textext-0b040ec1-2"><g id="g3837" fill="#000" fill-opacity="1"><use id="use3839" width="744.094" height="1052.362" x="0" y="9.963" xlink:href="#textext-0b040ec1-1"/></g></g></g><g id="g4141" stroke-width="0" transform="matrix(2.5,0,0,2.5,289.16016,474.23202)" ns0:page_width="6in" ns0:text="$\\theta$\n"><defs id="defs4143"><g id="g4145"><symbol id="textext-fa799660-0" overflow="visible"><path id="path4148" stroke="none"/></symbol><symbol id="textext-fa799660-1" overflow="visible"><path id="path4151" stroke="none" d="m 4.53125,-4.984375 c 0,-0.65625 -0.171875,-2.046875 -1.1875,-2.046875 -1.390625,0 -2.921875,2.8125 -2.921875,5.09375 0,0.9375 0.28125,2.046875 1.1875,2.046875 1.40625,0 2.921875,-2.859375 2.921875,-5.09375 z M 1.46875,-3.625 C 1.640625,-4.25 1.84375,-5.046875 2.25,-5.765625 2.515625,-6.25 2.875,-6.8125 3.328125,-6.8125 c 0.484375,0 0.546875,0.640625 0.546875,1.203125 0,0.5 -0.078125,1 -0.3125,1.984375 z m 2,0.328125 C 3.359375,-2.84375 3.15625,-2 2.765625,-1.28125 c -0.34375,0.6875 -0.71875,1.171875 -1.15625,1.171875 -0.328125,0 -0.53125,-0.296875 -0.53125,-1.21875 0,-0.421875 0.0625,-1 0.3125,-1.96875 z"/></symbol></g></defs><g id="textext-fa799660-2"><g id="g4154" fill="#000" fill-opacity="1"><use id="use4156" width="744.094" height="1052.362" x="0" y="9.963" xlink:href="#textext-fa799660-1"/></g></g></g><path id="path4237" fill="none" stroke="#000" stroke-dasharray="1 1" stroke-dashoffset="0" stroke-linecap="butt" stroke-linejoin="miter" stroke-miterlimit="4" stroke-opacity="1" stroke-width="1" d="m 273.04688,514.66687 c 8.78906,-5.46876 14.64458,-14.2767 10.35156,-25.39062 C 278.41083,476.36416 262.5,474.04187 262.5,474.04187"/></g><flowRoot id="flowRoot4027" fill="#000" fill-opacity="1" fill-rule="nonzero" stroke="none" stroke-linecap="butt" stroke-linejoin="miter" stroke-opacity="1" stroke-width="1" marker-end="none" marker-mid="none" marker-start="none" color="#000" display="inline" enable-background="accumulate" letter-spacing="0" overflow="visible" visibility="visible" word-spacing="0" xml:space="preserve" style="marker:none;line-height:125%"><flowRegion id="flowRegion4029"><rect id="rect4031" width="35.156" height="25.781" x="66.406" y="183.612"/></flowRegion><flowPara id="flowPara4033"/></flowRoot></svg>